<?xml version="1.0" encoding="UTF-8" standalone="no"?>
<!-- Created with Inkscape (http://www.inkscape.org/) -->

<svg
   xmlns:dc="http://purl.org/dc/elements/1.1/"
   xmlns:cc="http://creativecommons.org/ns#"
   xmlns:rdf="http://www.w3.org/1999/02/22-rdf-syntax-ns#"
   xmlns:svg="http://www.w3.org/2000/svg"
   xmlns="http://www.w3.org/2000/svg"
   xmlns:sodipodi="http://sodipodi.sourceforge.net/DTD/sodipodi-0.dtd"
   xmlns:inkscape="http://www.inkscape.org/namespaces/inkscape"
   width="24"
   height="256"
   id="svg2"
   version="1.1"
   inkscape:version="0.48+devel r11009"
   sodipodi:docname="checkbox_radiobutton_dark.svg"
   inkscape:export-filename="C:\nmp\html\SilexBoard\Board\Draft\Design\checkbox_radiobutton_dark.png"
   inkscape:export-xdpi="90"
   inkscape:export-ydpi="90">
  <defs
     id="defs4" />
  <sodipodi:namedview
     id="base"
     pagecolor="#ffffff"
     bordercolor="#666666"
     borderopacity="1.0"
     inkscape:pageopacity="0.0"
     inkscape:pageshadow="2"
     inkscape:zoom="4"
     inkscape:cx="26.247426"
     inkscape:cy="204.33777"
     inkscape:document-units="px"
     inkscape:current-layer="layer1"
     showgrid="true"
     width="0px"
     height="0px"
     fit-margin-top="0"
     fit-margin-left="0"
     fit-margin-right="0"
     fit-margin-bottom="0"
     showguides="true"
     inkscape:guide-bbox="true"
     inkscape:window-width="1366"
     inkscape:window-height="706"
     inkscape:window-x="-4"
     inkscape:window-y="-4"
     inkscape:window-maximized="1"
     objecttolerance="10"
     gridtolerance="10"
     guidetolerance="10">
    <sodipodi:guide
       orientation="0,1"
       position="-1e-005,-9.5312499e-006"
       id="guide5029"
       inkscape:color="rgb(ÿ,"
       inkscape:label="" />
    <sodipodi:guide
       orientation="1,0"
       position="-1e-005,-9.5312499e-006"
       id="guide5031"
       inkscape:color="rgb(ÿ,"
       inkscape:label="" />
    <sodipodi:guide
       orientation="0,1"
       position="-1e-005,15.99999"
       id="guide5035"
       inkscape:color="rgb(ÿ,ÿ,ÿ)"
       inkscape:label="" />
    <sodipodi:guide
       orientation="1,0"
       position="15.99999,-9.5312499e-006"
       id="guide5037"
       inkscape:color="rgb(ÿ,ÿ,ÿ)"
       inkscape:label="" />
    <sodipodi:guide
       orientation="0,1"
       position="-1e-005,23.99999"
       id="guide5039"
       inkscape:color="rgb(ÿ,ÿ,ÿ)"
       inkscape:label="" />
    <sodipodi:guide
       orientation="0,1"
       position="-1e-005,39.99999"
       id="guide5041"
       inkscape:color="rgb(ÿ,ÿ,ÿ)"
       inkscape:label="" />
    <sodipodi:guide
       orientation="0,1"
       position="-1e-005,47.99999"
       id="guide5043"
       inkscape:color="rgb(ÿ,ÿ,ÿ)"
       inkscape:label="" />
    <sodipodi:guide
       orientation="0,1"
       position="-1e-005,63.99999"
       id="guide5045"
       inkscape:color="rgb(ÿ,ÿ,ÿ)"
       inkscape:label="" />
    <sodipodi:guide
       orientation="0,1"
       position="-1e-005,71.99999"
       id="guide5047"
       inkscape:color="rgb(ÿ,ÿ,ÿ)"
       inkscape:label="" />
    <sodipodi:guide
       orientation="0,1"
       position="-1e-005,87.99999"
       id="guide5049"
       inkscape:color="rgb(ÿ,ÿ,ÿ)"
       inkscape:label="" />
    <sodipodi:guide
       orientation="0,1"
       position="-1e-005,95.99999"
       id="guide5051"
       inkscape:color="rgb(ÿ,ÿ,ÿ)"
       inkscape:label="" />
    <sodipodi:guide
       orientation="0,1"
       position="-1e-005,111.99999"
       id="guide5053"
       inkscape:color="rgb(ÿ,ÿ,ÿ)"
       inkscape:label="" />
    <sodipodi:guide
       orientation="0,1"
       position="-1e-005,119.99999"
       id="guide5055"
       inkscape:color="rgb(ÿ,ÿ,ÿ)"
       inkscape:label="" />
    <sodipodi:guide
       orientation="0,1"
       position="-1e-005,135.99999"
       id="guide5057"
       inkscape:color="rgb(ÿ,ÿ,ÿ)"
       inkscape:label="" />
    <sodipodi:guide
       orientation="0,1"
       position="-1e-005,159.99999"
       id="guide5059"
       inkscape:color="rgb(ÿ,ÿ,ÿ)"
       inkscape:label="" />
    <sodipodi:guide
       orientation="0,1"
       position="-1e-005,175.99999"
       id="guide5061"
       inkscape:label=""
       inkscape:color="rgb(ÿ,ÿ,ÿ)" />
    <sodipodi:guide
       orientation="0,1"
       position="-1e-005,191.99999"
       id="guide5063"
       inkscape:color="rgb(ÿ,ÿ,ÿ)"
       inkscape:label="" />
    <sodipodi:guide
       orientation="0,1"
       position="-1e-005,207.99999"
       id="guide5065"
       inkscape:color="rgb(ÿ,ÿ,ÿ)"
       inkscape:label="" />
    <sodipodi:guide
       orientation="0,1"
       position="-1e-005,223.99999"
       id="guide5067"
       inkscape:color="rgb(ÿ,ÿ,ÿ)"
       inkscape:label="" />
    <sodipodi:guide
       orientation="0,1"
       position="-1e-005,239.99999"
       id="guide5069"
       inkscape:color="rgb(ÿ,ÿ,ÿ)"
       inkscape:label="" />
    <sodipodi:guide
       orientation="0,1"
       position="-1e-005,255.99999"
       id="guide5071"
       inkscape:color="rgb(ÿ,ÿ,ÿ)"
       inkscape:label="" />
    <sodipodi:guide
       orientation="1,0"
       position="23.99999,-9.5312499e-006"
       id="guide5073"
       inkscape:color="rgb(=,=,=)"
       inkscape:label="" />
    <inkscape:grid
       type="xygrid"
       id="grid5077"
       empspacing="1"
       visible="true"
       enabled="false"
       snapvisiblegridlinesonly="true"
       color="#808080"
       opacity="0.0627451"
       empcolor="#808080"
       empopacity="0.0627451"
       originx="-1e-005px"
       originy="-9.5312499e-006px" />
  </sodipodi:namedview>
  <metadata
     id="metadata7">
    <rdf:RDF>
      <cc:Work
         rdf:about="">
        <dc:format>image/svg+xml</dc:format>
        <dc:type
           rdf:resource="http://purl.org/dc/dcmitype/StillImage" />
        <dc:title></dc:title>
      </cc:Work>
    </rdf:RDF>
  </metadata>
  <g
     inkscape:label="Ebene 1"
     inkscape:groupmode="layer"
     id="layer1"
     transform="translate(-203.35712,-224.79074)">
    <path
       style="fill:#ffffff;fill-opacity:1;stroke:none"
       d="m 8,-112 c -4.418278,0 -8,3.58172 -8,8 0,4.418278 3.581722,8 8,8 4.418278,0 8,-3.581722 8,-8 0,-4.41828 -3.581722,-8 -8,-8 z m 0,2 c 3.313709,0 6,2.68629 6,6 0,3.31371 -2.686291,6 -6,6 -3.3137085,0 -6,-2.68629 -6,-6 0,-3.31371 2.6862915,-6 6,-6 z"
       transform="translate(203.35712,336.79074)"
       id="path5075"
       inkscape:connector-curvature="0" />
    <path
       id="path5085"
       d="m 211.35712,240.79074 c -4.41828,0 -8,3.58172 -8,8 0,4.41828 3.58172,8 8,8 4.41828,0 8,-3.58172 8,-8 0,-4.41828 -3.58172,-8 -8,-8 z m 0,2 c 3.31371,0 6,2.68629 6,6 0,3.31371 -2.68629,6 -6,6 -3.31371,0 -6,-2.68629 -6,-6 0,-3.31371 2.68629,-6 6,-6 z"
       style="fill:#558fa4;fill-opacity:1;stroke:none"
       inkscape:connector-curvature="0" />
    <path
       inkscape:connector-curvature="0"
       style="fill:#1d3139;fill-opacity:1;stroke:none"
       d="m 211.35712,256.79074 c -4.41828,0 -8,3.58172 -8,8 0,4.41828 3.58172,8 8,8 4.41828,0 8,-3.58172 8,-8 0,-4.41828 -3.58172,-8 -8,-8 z m 0,2 c 3.31371,0 6,2.68629 6,6 0,3.31371 -2.68629,6 -6,6 -3.31371,0 -6,-2.68629 -6,-6 0,-3.31371 2.68629,-6 6,-6 z"
       id="path5087" />
    <path
       id="path5097"
       d="m 211.35712,272.79074 c -4.41828,0 -8,3.58172 -8,8 0,4.41828 3.58172,8 8,8 4.41828,0 8,-3.58172 8,-8 0,-4.41828 -3.58172,-8 -8,-8 z m 0,2 c 3.31371,0 6,2.68629 6,6 0,3.31371 -2.68629,6 -6,6 -3.31371,0 -6,-2.68629 -6,-6 0,-3.31371 2.68629,-6 6,-6 z"
       style="fill:#ffffff;fill-opacity:1;stroke:none"
       inkscape:connector-curvature="0" />
    <path
       inkscape:connector-curvature="0"
       style="fill:#558fa4;fill-opacity:1;stroke:none"
       d="m 211.35712,288.79074 c -4.41828,0 -8,3.58172 -8,8 0,4.41828 3.58172,8 8,8 4.41828,0 8,-3.58172 8,-8 0,-4.41828 -3.58172,-8 -8,-8 z m 0,2 c 3.31371,0 6,2.68629 6,6 0,3.31371 -2.68629,6 -6,6 -3.31371,0 -6,-2.68629 -6,-6 0,-3.31371 2.68629,-6 6,-6 z"
       id="path5099" />
    <path
       id="path5101"
       d="m 211.35712,304.79074 c -4.41828,0 -8,3.58172 -8,8 0,4.41828 3.58172,8 8,8 4.41828,0 8,-3.58172 8,-8 0,-4.41828 -3.58172,-8 -8,-8 z m 0,2 c 3.31371,0 6,2.68629 6,6 0,3.31371 -2.68629,6 -6,6 -3.31371,0 -6,-2.68629 -6,-6 0,-3.31371 2.68629,-6 6,-6 z"
       style="fill:#1d3139;fill-opacity:1;stroke:none"
       inkscape:connector-curvature="0" />
    <path
       style="fill:#ffffff;fill-opacity:1;stroke:none"
       d="m 8,-60 c -2.209139,0 -4,1.790861 -4,4 0,2.209139 1.790861,4 4,4 2.209139,0 4,-1.790861 4,-4 0,-2.209139 -1.790861,-4 -4,-4 z m 0,2 c 1.1045695,0 2,0.895431 2,2 0,1.104569 -0.8954305,2 -2,2 -1.1045695,0 -2,-0.895431 -2,-2 0,-1.104569 0.8954305,-2 2,-2 z"
       transform="translate(203.35712,336.79074)"
       id="path5105"
       inkscape:connector-curvature="0" />
    <path
       id="path5110"
       d="m 211.35712,292.79074 c -2.20914,0 -4,1.79086 -4,4 0,2.20914 1.79086,4 4,4 2.20914,0 4,-1.79086 4,-4 0,-2.20914 -1.79086,-4 -4,-4 z m 0,2 c 1.10457,0 2,0.89543 2,2 0,1.10457 -0.89543,2 -2,2 -1.10457,0 -2,-0.89543 -2,-2 0,-1.10457 0.89543,-2 2,-2 z"
       style="fill:#ffffff;fill-opacity:1;stroke:none"
       inkscape:connector-curvature="0" />
    <path
       inkscape:connector-curvature="0"
       style="fill:#ffffff;fill-opacity:1;stroke:none"
       d="m 211.35712,308.79074 c -2.20914,0 -4,1.79086 -4,4 0,2.20914 1.79086,4 4,4 2.20914,0 4,-1.79086 4,-4 0,-2.20914 -1.79086,-4 -4,-4 z m 0,2 c 1.10457,0 2,0.89543 2,2 0,1.10457 -0.89543,2 -2,2 -1.10457,0 -2,-0.89543 -2,-2 0,-1.10457 0.89543,-2 2,-2 z"
       id="path5112" />
    <path
       style="fill:#ffffff;fill-opacity:1;stroke:none"
       d="M 3,8 C 1.338,8 0,9.338 0,11 l 0,10 c 0,1.662 1.338,3 3,3 l 10,0 c 1.662,0 3,-1.338 3,-3 L 16,11 C 16,9.338 14.662,8 13,8 L 3,8 z m 1.25,2 7.5,0 c 1.2465,0 2.25,1.0035 2.25,2.25 l 0,7.5 C 14,20.9965 12.9965,22 11.75,22 l -7.5,0 C 3.0035,22 2,20.9965 2,19.75 l 0,-7.5 C 2,11.0035 3.0035,10 4.25,10 z"
       transform="translate(203.35712,336.79074)"
       id="rect5143"
       inkscape:connector-curvature="0" />
    <path
       id="path5148"
       d="m 206.35712,368.79074 c -1.662,0 -3,1.338 -3,3 l 0,10 c 0,1.662 1.338,3 3,3 l 10,0 c 1.662,0 3,-1.338 3,-3 l 0,-10 c 0,-1.662 -1.338,-3 -3,-3 l -10,0 z m 1.25,2 7.5,0 c 1.2465,0 2.25,1.0035 2.25,2.25 l 0,7.5 c 0,1.2465 -1.0035,2.25 -2.25,2.25 l -7.5,0 c -1.2465,0 -2.25,-1.0035 -2.25,-2.25 l 0,-7.5 c 0,-1.2465 1.0035,-2.25 2.25,-2.25 z"
       style="fill:#558fa4;fill-opacity:1;stroke:none"
       inkscape:connector-curvature="0" />
    <path
       inkscape:connector-curvature="0"
       style="fill:#1d3139;fill-opacity:1;stroke:none"
       d="m 206.35712,392.79074 c -1.662,0 -3,1.338 -3,3 l 0,10 c 0,1.662 1.338,3 3,3 l 10,0 c 1.662,0 3,-1.338 3,-3 l 0,-10 c 0,-1.662 -1.338,-3 -3,-3 l -10,0 z m 1.25,2 7.5,0 c 1.2465,0 2.25,1.0035 2.25,2.25 l 0,7.5 c 0,1.2465 -1.0035,2.25 -2.25,2.25 l -7.5,0 c -1.2465,0 -2.25,-1.0035 -2.25,-2.25 l 0,-7.5 c 0,-1.2465 1.0035,-2.25 2.25,-2.25 z"
       id="path5150" />
    <path
       style="fill:#ffffff;fill-opacity:1;stroke:none"
       d="m 3,80 c -1.662,0 -3,1.338 -3,3 l 0,10 c 0,1.662 1.338,3 3,3 l 10,0 c 1.662,0 3,-1.338 3,-3 l 0,-7.59375 c -0.742454,0.978163 -1.407827,1.925694 -2,2.84375 l 0,3.5 C 14,92.9965 12.9965,94 11.75,94 L 9,94 C 8.903678,94.06766 8.80557,94.133725 8.71875,94.1875 8.66087,94.22335 8.61271,94.24056 8.53125,94.28125 8.49052,94.30159 8.45906,94.34381 8.375,94.375 8.33297,94.3906 8.27216,94.38606 8.1875,94.40625 8.14517,94.41634 8.10015,94.42896 8.03125,94.4375 7.96235,94.44604 7.75075,94.4688 7.75,94.46875 a 1.458721,1.458721 0 0 1 -0.03125,0 c -0.12157,-0.01013 -0.30162,-0.02274 -0.625,-0.125 A 1.458721,1.458721 0 0 1 7.03125,94.3125 l -0.25,-0.09375 A 1.458721,1.458721 0 0 1 6.375,94 L 4.25,94 C 3.0035,94 2,92.9965 2,91.75 L 2,87.15625 A 1.458721,1.458721 0 0 1 1.6875,86.46875 L 1.625,86.1875 l 0,-0.03125 C 1.61157,86.10422 1.58838,86.05299 1.5625,85.84375 1.53412,85.61432 1.58171,85.11863 1.75,84.8125 1.8481662,84.633921 1.9192477,84.49771 2,84.40625 L 2,84.25 C 2,83.0035 3.0035,82 4.25,82 l 6.90625,0 c 0.502677,-0.601366 1.046711,-1.192994 1.625,-1.78125 C 12.855837,80.142878 12.92544,80.074963 13,80 L 3,80 z"
       transform="translate(203.35712,336.79074)"
       id="path5152"
       inkscape:connector-curvature="0" />
    <path
       style="fill:#ffffff;fill-opacity:1"
       d="m 210.88309,429.70395 -0.26566,-0.0839 -0.115,-0.32341 c -0.30135,-0.84738 -0.96783,-2.38263 -1.47013,-3.38639 -0.54395,-1.08704 -0.9723,-1.746 -1.42638,-2.1943 -0.28171,-0.27812 -0.48697,-0.42418 -0.85588,-0.60893 l -0.27988,-0.1402 -0.0673,-0.30404 c -0.0801,-0.36152 -0.1179,-0.29507 0.44216,-0.77743 0.856,-0.73721 1.60304,-1.10206 2.36988,-1.15749 0.24883,-0.018 0.34234,-0.01 0.54277,0.0517 0.72384,0.21985 1.44683,1.08302 2.20494,2.63234 0.14771,0.30186 0.28647,0.54933 0.30835,0.54991 0.0219,6.2e-4 0.16995,-0.19144 0.32901,-0.42667 1.24912,-1.84725 2.78692,-3.70407 4.56898,-5.51684 2.7364,-2.78353 5.42272,-4.90328 8.06566,-6.3645 0.40506,-0.22395 0.42656,-0.23159 0.4739,-0.16887 0.0274,0.0361 0.18435,0.24921 0.34908,0.47347 l 0.29953,0.40775 -0.0406,0.23818 c -0.0223,0.13098 -0.0505,0.2561 -0.0625,0.27804 -0.0121,0.0219 -0.14764,0.13299 -0.30127,0.24679 -1.94549,1.44103 -4.30594,3.86098 -6.78715,6.95814 -2.02471,2.52738 -3.51402,4.74489 -4.74642,7.06726 l -0.36898,0.6953 -0.46788,0.29978 c -0.71511,0.45815 -1.70035,1.1358 -2.04064,1.40359 -0.16802,0.13222 -0.32513,0.2391 -0.34915,0.23749 -0.024,-0.002 -0.16319,-0.0406 -0.30929,-0.0868 z"
       id="path5179"
       inkscape:connector-curvature="0" />
    <path
       id="path5190"
       d="m 206.35712,440.79074 c -1.662,0 -3,1.338 -3,3 l 0,10 c 0,1.662 1.338,3 3,3 l 10,0 c 1.662,0 3,-1.338 3,-3 l 0,-7.59375 c -0.74245,0.97816 -1.40783,1.92569 -2,2.84375 l 0,3.5 c 0,1.2465 -1.0035,2.25 -2.25,2.25 l -2.75,0 c -0.0963,0.0677 -0.19443,0.13373 -0.28125,0.1875 -0.0579,0.0358 -0.10604,0.0531 -0.1875,0.0937 -0.0407,0.0203 -0.0722,0.0626 -0.15625,0.0937 -0.042,0.0156 -0.10284,0.0111 -0.1875,0.0312 -0.0423,0.0101 -0.0874,0.0227 -0.15625,0.0312 -0.0689,0.009 -0.2805,0.0313 -0.28125,0.0312 a 1.458721,1.458721 0 0 1 -0.0312,0 c -0.12157,-0.0101 -0.30162,-0.0227 -0.625,-0.125 a 1.458721,1.458721 0 0 1 -0.0625,-0.0312 l -0.25,-0.0937 a 1.458721,1.458721 0 0 1 -0.40625,-0.21875 l -2.125,0 c -1.2465,0 -2.25,-1.0035 -2.25,-2.25 l 0,-4.59375 a 1.458721,1.458721 0 0 1 -0.3125,-0.6875 l -0.0625,-0.28125 0,-0.0312 c -0.0134,-0.052 -0.0366,-0.10326 -0.0625,-0.3125 -0.0284,-0.22943 0.0192,-0.72512 0.1875,-1.03125 0.0982,-0.17858 0.16925,-0.31479 0.25,-0.40625 l 0,-0.15625 c 0,-1.2465 1.0035,-2.25 2.25,-2.25 l 6.90625,0 c 0.50268,-0.60137 1.04671,-1.19299 1.625,-1.78125 0.0746,-0.0759 0.14419,-0.14379 0.21875,-0.21875 l -10,0 z"
       style="fill:#558fa4;fill-opacity:1;stroke:none"
       inkscape:connector-curvature="0" />
    <path
       inkscape:connector-curvature="0"
       id="path5192"
       d="m 210.88309,453.70395 -0.26566,-0.0839 -0.115,-0.32341 c -0.30135,-0.84738 -0.96783,-2.38263 -1.47013,-3.38639 -0.54395,-1.08704 -0.9723,-1.746 -1.42638,-2.1943 -0.28171,-0.27812 -0.48697,-0.42418 -0.85588,-0.60893 l -0.27988,-0.1402 -0.0673,-0.30404 c -0.0801,-0.36152 -0.1179,-0.29507 0.44216,-0.77743 0.856,-0.73721 1.60304,-1.10206 2.36988,-1.15749 0.24883,-0.018 0.34234,-0.01 0.54277,0.0517 0.72384,0.21985 1.44683,1.08302 2.20494,2.63234 0.14771,0.30186 0.28647,0.54933 0.30835,0.54991 0.0219,6.2e-4 0.16995,-0.19144 0.32901,-0.42667 1.24912,-1.84725 2.78692,-3.70407 4.56898,-5.51684 2.7364,-2.78353 5.42272,-4.90328 8.06566,-6.3645 0.40506,-0.22395 0.42656,-0.23159 0.4739,-0.16887 0.0274,0.0361 0.18435,0.24921 0.34908,0.47347 l 0.29953,0.40775 -0.0406,0.23818 c -0.0223,0.13098 -0.0505,0.2561 -0.0625,0.27804 -0.0121,0.0219 -0.14764,0.13299 -0.30127,0.24679 -1.94549,1.44103 -4.30594,3.86098 -6.78715,6.95814 -2.02471,2.52738 -3.51402,4.74489 -4.74642,7.06726 l -0.36898,0.6953 -0.46788,0.29978 c -0.71511,0.45815 -1.70035,1.1358 -2.04064,1.40359 -0.16802,0.13222 -0.32513,0.2391 -0.34915,0.23749 -0.024,-0.002 -0.16319,-0.0406 -0.30929,-0.0868 z"
       style="fill:#ffffff;fill-opacity:1" />
    <path
       inkscape:connector-curvature="0"
       style="fill:#1d3139;fill-opacity:1;stroke:none"
       d="m 206.35712,464.79074 c -1.662,0 -3,1.338 -3,3 l 0,10 c 0,1.662 1.338,3 3,3 l 10,0 c 1.662,0 3,-1.338 3,-3 l 0,-7.59375 c -0.74245,0.97816 -1.40783,1.92569 -2,2.84375 l 0,3.5 c 0,1.2465 -1.0035,2.25 -2.25,2.25 l -2.75,0 c -0.0963,0.0677 -0.19443,0.13373 -0.28125,0.1875 -0.0579,0.0358 -0.10604,0.0531 -0.1875,0.0937 -0.0407,0.0203 -0.0722,0.0626 -0.15625,0.0937 -0.042,0.0156 -0.10284,0.0111 -0.1875,0.0312 -0.0423,0.0101 -0.0874,0.0227 -0.15625,0.0312 -0.0689,0.009 -0.2805,0.0313 -0.28125,0.0312 a 1.458721,1.458721 0 0 1 -0.0312,0 c -0.12157,-0.0101 -0.30162,-0.0227 -0.625,-0.125 a 1.458721,1.458721 0 0 1 -0.0625,-0.0312 l -0.25,-0.0937 a 1.458721,1.458721 0 0 1 -0.40625,-0.21875 l -2.125,0 c -1.2465,0 -2.25,-1.0035 -2.25,-2.25 l 0,-4.59375 a 1.458721,1.458721 0 0 1 -0.3125,-0.6875 l -0.0625,-0.28125 0,-0.0312 c -0.0134,-0.052 -0.0366,-0.10326 -0.0625,-0.3125 -0.0284,-0.22943 0.0192,-0.72512 0.1875,-1.03125 0.0982,-0.17858 0.16925,-0.31479 0.25,-0.40625 l 0,-0.15625 c 0,-1.2465 1.0035,-2.25 2.25,-2.25 l 6.90625,0 c 0.50268,-0.60137 1.04671,-1.19299 1.625,-1.78125 0.0746,-0.0759 0.14419,-0.14379 0.21875,-0.21875 l -10,0 z"
       id="path5194" />
    <path
       style="fill:#ffffff;fill-opacity:1"
       d="m 210.88309,477.70395 -0.26566,-0.0839 -0.115,-0.32341 c -0.30135,-0.84738 -0.96783,-2.38263 -1.47013,-3.38639 -0.54395,-1.08704 -0.9723,-1.746 -1.42638,-2.1943 -0.28171,-0.27812 -0.48697,-0.42418 -0.85588,-0.60893 l -0.27988,-0.1402 -0.0673,-0.30404 c -0.0801,-0.36152 -0.1179,-0.29507 0.44216,-0.77743 0.856,-0.73721 1.60304,-1.10206 2.36988,-1.15749 0.24883,-0.018 0.34234,-0.01 0.54277,0.0517 0.72384,0.21985 1.44683,1.08302 2.20494,2.63234 0.14771,0.30186 0.28647,0.54933 0.30835,0.54991 0.0219,6.2e-4 0.16995,-0.19144 0.32901,-0.42667 1.24912,-1.84725 2.78692,-3.70407 4.56898,-5.51684 2.7364,-2.78353 5.42272,-4.90328 8.06566,-6.3645 0.40506,-0.22395 0.42656,-0.23159 0.4739,-0.16887 0.0274,0.0361 0.18435,0.24921 0.34908,0.47347 l 0.29953,0.40775 -0.0406,0.23818 c -0.0223,0.13098 -0.0505,0.2561 -0.0625,0.27804 -0.0121,0.0219 -0.14764,0.13299 -0.30127,0.24679 -1.94549,1.44103 -4.30594,3.86098 -6.78715,6.95814 -2.02471,2.52738 -3.51402,4.74489 -4.74642,7.06726 l -0.36898,0.6953 -0.46788,0.29978 c -0.71511,0.45815 -1.70035,1.1358 -2.04064,1.40359 -0.16802,0.13222 -0.32513,0.2391 -0.34915,0.23749 -0.024,-0.002 -0.16319,-0.0406 -0.30929,-0.0868 z"
       id="path5196"
       inkscape:connector-curvature="0" />
  </g>
</svg>
