<?xml version="1.0" encoding="UTF-8" standalone="no"?>
<!-- Created with Inkscape (http://www.inkscape.org/) -->

<svg
   xmlns:dc="http://purl.org/dc/elements/1.1/"
   xmlns:cc="http://creativecommons.org/ns#"
   xmlns:rdf="http://www.w3.org/1999/02/22-rdf-syntax-ns#"
   xmlns:svg="http://www.w3.org/2000/svg"
   xmlns="http://www.w3.org/2000/svg"
   xmlns:sodipodi="http://sodipodi.sourceforge.net/DTD/sodipodi-0.dtd"
   xmlns:inkscape="http://www.inkscape.org/namespaces/inkscape"
   width="900"
   height="250"
   id="svg2"
   version="1.1"
   inkscape:version="0.48.3.1 r9886"
   sodipodi:docname="header-circles.svg"
   inkscape:export-filename="D:\NMP\html\SilexBoard\Board\styles\Standard\images\PSD\header-circles.png"
   inkscape:export-xdpi="90"
   inkscape:export-ydpi="90">
  <defs
     id="defs4" />
  <sodipodi:namedview
     id="base"
     pagecolor="#ffffff"
     bordercolor="#666666"
     borderopacity="1.0"
     inkscape:pageopacity="0.0"
     inkscape:pageshadow="2"
     inkscape:zoom="1"
     inkscape:cx="457.90765"
     inkscape:cy="195.57575"
     inkscape:document-units="px"
     inkscape:current-layer="layer1"
     showgrid="true"
     gridtolerance="10"
     objecttolerance="10"
     guidetolerance="10"
     borderlayer="false"
     showborder="false"
     inkscape:showpageshadow="true"
     inkscape:window-width="1440"
     inkscape:window-height="838"
     inkscape:window-x="-8"
     inkscape:window-y="-8"
     inkscape:window-maximized="1">
    <inkscape:grid
       type="xygrid"
       id="grid2985"
       empspacing="1"
       visible="true"
       enabled="true"
       snapvisiblegridlinesonly="true"
       spacingx="900px"
       spacingy="250px" />
  </sodipodi:namedview>
  <metadata
     id="metadata7">
    <rdf:RDF>
      <cc:Work
         rdf:about="">
        <dc:format>image/svg+xml</dc:format>
        <dc:type
           rdf:resource="http://purl.org/dc/dcmitype/StillImage" />
        <dc:title></dc:title>
      </cc:Work>
    </rdf:RDF>
  </metadata>
  <g
     inkscape:label="Ebene 1"
     inkscape:groupmode="layer"
     id="layer1"
     transform="translate(0,-802.36218)">
    <rect
       style="fill:#3c4a58;fill-opacity:1;stroke:none;stroke-opacity:1"
       id="rect2987"
       width="900"
       height="250"
       x="0"
       y="1052.3622" />
    <path
       sodipodi:type="arc"
       style="fill:#ffffff;fill-opacity:1;stroke:none"
       id="path3757"
       sodipodi:cx="269.5"
       sodipodi:cy="-17.5"
       sodipodi:rx="17.5"
       sodipodi:ry="17.5"
       d="m 287,-17.5 a 17.5,17.5 0 1 1 -35,0 17.5,17.5 0 1 1 35,0 z"
       transform="translate(513.89444,940.31715)" />
    <path
       transform="matrix(0.71428571,0,0,0.71428571,410.33498,1015.7698)"
       d="m 287,-17.5 a 17.5,17.5 0 1 1 -35,0 17.5,17.5 0 1 1 35,0 z"
       sodipodi:ry="17.5"
       sodipodi:rx="17.5"
       sodipodi:cy="-17.5"
       sodipodi:cx="269.5"
       id="path3759"
       style="fill:#ffffff;fill-opacity:1;stroke:none"
       sodipodi:type="arc" />
    <path
       sodipodi:type="arc"
       style="fill:#ffffff;fill-opacity:1;stroke:none"
       id="path3761"
       sodipodi:cx="269.5"
       sodipodi:cy="-17.5"
       sodipodi:rx="17.5"
       sodipodi:ry="17.5"
       d="m 287,-17.5 a 17.5,17.5 0 1 1 -35,0 17.5,17.5 0 1 1 35,0 z"
       transform="matrix(0.42857142,0,0,0.42857142,-33.42752,1015.3945)" />
    <path
       transform="matrix(0.42857142,0,0,0.42857142,655.52137,992.45894)"
       d="m 287,-17.5 a 17.5,17.5 0 1 1 -35,0 17.5,17.5 0 1 1 35,0 z"
       sodipodi:ry="17.5"
       sodipodi:rx="17.5"
       sodipodi:cy="-17.5"
       sodipodi:cx="269.5"
       id="path3763"
       style="fill:#ffffff;fill-opacity:1;stroke:none"
       sodipodi:type="arc" />
    <path
       sodipodi:type="arc"
       style="fill:#ffffff;fill-opacity:1;stroke:none"
       id="path3765"
       sodipodi:cx="269.5"
       sodipodi:cy="-17.5"
       sodipodi:rx="17.5"
       sodipodi:ry="17.5"
       d="m 287,-17.5 a 17.5,17.5 0 1 1 -35,0 17.5,17.5 0 1 1 35,0 z"
       transform="matrix(0.54285713,0,0,0.54285713,682.89558,834.75526)" />
    <path
       transform="matrix(0.65714284,0,0,0.65714284,163.52331,890.85199)"
       d="m 287,-17.5 a 17.5,17.5 0 1 1 -35,0 17.5,17.5 0 1 1 35,0 z"
       sodipodi:ry="17.5"
       sodipodi:rx="17.5"
       sodipodi:cy="-17.5"
       sodipodi:cx="269.5"
       id="path3767"
       style="fill:#ffffff;fill-opacity:1;stroke:none"
       sodipodi:type="arc" />
    <path
       sodipodi:type="arc"
       style="fill:#ffffff;fill-opacity:1;stroke:none"
       id="path3769"
       sodipodi:cx="269.5"
       sodipodi:cy="-17.5"
       sodipodi:rx="17.5"
       sodipodi:ry="17.5"
       d="m 287,-17.5 a 17.5,17.5 0 1 1 -35,0 17.5,17.5 0 1 1 35,0 z"
       transform="matrix(0.65714284,0,0,0.65714284,-157.11759,898.3149)" />
    <path
       transform="matrix(0.42857141,0,0,0.42857141,317.16433,862.43069)"
       d="m 287,-17.5 a 17.5,17.5 0 1 1 -35,0 17.5,17.5 0 1 1 35,0 z"
       sodipodi:ry="17.5"
       sodipodi:rx="17.5"
       sodipodi:cy="-17.5"
       sodipodi:cx="269.5"
       id="path3771"
       style="fill:#ffffff;fill-opacity:1;stroke:none"
       sodipodi:type="arc" />
    <path
       sodipodi:type="arc"
       style="fill:none;stroke:#ffffff;stroke-width:5;stroke-miterlimit:4;stroke-opacity:1;stroke-dasharray:none"
       id="path3773"
       sodipodi:cx="187"
       sodipodi:cy="74"
       sodipodi:rx="37"
       sodipodi:ry="37"
       d="m 224,74 a 37,37 0 1 1 -74,0 37,37 0 1 1 74,0 z"
       transform="translate(153.62331,805.35199)" />
    <path
       transform="translate(467,749.36218)"
       d="m 224,74 a 37,37 0 1 1 -74,0 37,37 0 1 1 74,0 z"
       sodipodi:ry="37"
       sodipodi:rx="37"
       sodipodi:cy="74"
       sodipodi:cx="187"
       id="path3775"
       style="fill:none;stroke:#ffffff;stroke-width:5;stroke-miterlimit:4;stroke-opacity:1;stroke-dasharray:none"
       sodipodi:type="arc" />
    <path
       sodipodi:type="arc"
       style="fill:none;stroke:#ffffff;stroke-width:5;stroke-miterlimit:4;stroke-opacity:1;stroke-dasharray:none"
       id="path3777"
       sodipodi:cx="187"
       sodipodi:cy="74"
       sodipodi:rx="37"
       sodipodi:ry="37"
       d="m 224,74 a 37,37 0 1 1 -74,0 37,37 0 1 1 74,0 z"
       transform="matrix(1.6835443,0,0,1.6835443,339.17722,698.7799)" />
    <path
       transform="matrix(2.6455696,0,0,2.6455696,159.27849,627.59003)"
       d="m 224,74 a 37,37 0 1 1 -74,0 37,37 0 1 1 74,0 z"
       sodipodi:ry="37"
       sodipodi:rx="37"
       sodipodi:cy="74"
       sodipodi:cx="187"
       id="path3779"
       style="fill:none;stroke:#ffffff;stroke-width:5;stroke-miterlimit:4;stroke-opacity:1;stroke-dasharray:none"
       sodipodi:type="arc" />
    <path
       transform="matrix(0.62025316,0,0,0.62025316,376.63597,919.45326)"
       d="m 224,74 a 37,37 0 1 1 -74,0 37,37 0 1 1 74,0 z"
       sodipodi:ry="37"
       sodipodi:rx="37"
       sodipodi:cy="74"
       sodipodi:cx="187"
       id="path3781"
       style="fill:none;stroke:#ffffff;stroke-width:5;stroke-miterlimit:4;stroke-opacity:1;stroke-dasharray:none"
       sodipodi:type="arc" />
    <path
       sodipodi:type="arc"
       style="fill:none;stroke:#ffffff;stroke-width:5;stroke-miterlimit:4;stroke-opacity:1;stroke-dasharray:none"
       id="path3783"
       sodipodi:cx="187"
       sodipodi:cy="74"
       sodipodi:rx="37"
       sodipodi:ry="37"
       d="m 224,74 a 37,37 0 1 1 -74,0 37,37 0 1 1 74,0 z"
       transform="matrix(0.39240506,0,0,0.39240506,61.243565,932.31402)" />
    <path
       transform="matrix(0.82278481,0,0,0.82278481,-133.87835,825.92882)"
       d="m 224,74 a 37,37 0 1 1 -74,0 37,37 0 1 1 74,0 z"
       sodipodi:ry="37"
       sodipodi:rx="37"
       sodipodi:cy="74"
       sodipodi:cx="187"
       id="path3785"
       style="fill:none;stroke:#ffffff;stroke-width:5;stroke-miterlimit:4;stroke-opacity:1;stroke-dasharray:none"
       sodipodi:type="arc" />
    <path
       sodipodi:type="arc"
       style="fill:none;stroke:#ffffff;stroke-width:5;stroke-miterlimit:4;stroke-opacity:1;stroke-dasharray:none"
       id="path3787"
       sodipodi:cx="187"
       sodipodi:cy="74"
       sodipodi:rx="37"
       sodipodi:ry="37"
       d="m 224,74 a 37,37 0 1 1 -74,0 37,37 0 1 1 74,0 z"
       transform="matrix(1.4556962,0,0,1.4556962,-252.23278,779.09338)" />
    <path
       transform="matrix(0.24050633,0,0,0.24050633,150.64862,812.55453)"
       d="m 224,74 a 37,37 0 1 1 -74,0 37,37 0 1 1 74,0 z"
       sodipodi:ry="37"
       sodipodi:rx="37"
       sodipodi:cy="74"
       sodipodi:cx="187"
       id="path3789"
       style="fill:none;stroke:#ffffff;stroke-width:5;stroke-miterlimit:4;stroke-opacity:1;stroke-dasharray:none"
       sodipodi:type="arc" />
    <path
       sodipodi:type="arc"
       style="fill:none;stroke:#ffffff;stroke-width:5;stroke-miterlimit:4;stroke-opacity:1;stroke-dasharray:none"
       id="path3791"
       sodipodi:cx="187"
       sodipodi:cy="74"
       sodipodi:rx="37"
       sodipodi:ry="37"
       d="m 224,74 a 37,37 0 1 1 -74,0 37,37 0 1 1 74,0 z"
       transform="matrix(0.49367089,0,0,0.49367089,103.30685,793.82035)" />
    <path
       transform="matrix(0.82278481,0,0,0.82278481,41.762546,769.46592)"
       d="m 224,74 a 37,37 0 1 1 -74,0 37,37 0 1 1 74,0 z"
       sodipodi:ry="37"
       sodipodi:rx="37"
       sodipodi:cy="74"
       sodipodi:cx="187"
       id="path3793"
       style="fill:none;stroke:#ffffff;stroke-width:5;stroke-miterlimit:4;stroke-opacity:1;stroke-dasharray:none"
       sodipodi:type="arc" />
    <path
       sodipodi:type="arc"
       style="fill:none;stroke:#ffffff;stroke-width:5;stroke-miterlimit:4;stroke-opacity:1;stroke-dasharray:none"
       id="path3795"
       sodipodi:cx="187"
       sodipodi:cy="74"
       sodipodi:rx="37"
       sodipodi:ry="37"
       d="m 224,74 a 37,37 0 1 1 -74,0 37,37 0 1 1 74,0 z"
       transform="matrix(1.2819689,0,0,1.2819689,-44.104879,735.48629)" />
    <path
       transform="matrix(0.86514015,0,0,0.86514015,125.8421,969.33162)"
       d="m 224,74 a 37,37 0 1 1 -74,0 37,37 0 1 1 74,0 z"
       sodipodi:ry="37"
       sodipodi:rx="37"
       sodipodi:cy="74"
       sodipodi:cx="187"
       id="path3797"
       style="fill:none;stroke:#ffffff;stroke-width:5;stroke-miterlimit:4;stroke-opacity:1;stroke-dasharray:none"
       sodipodi:type="arc" />
    <path
       sodipodi:type="arc"
       style="fill:none;stroke:#ffffff;stroke-width:5;stroke-miterlimit:4;stroke-opacity:1;stroke-dasharray:none"
       id="path3799"
       sodipodi:cx="187"
       sodipodi:cy="74"
       sodipodi:rx="37"
       sodipodi:ry="37"
       d="m 224,74 a 37,37 0 1 1 -74,0 37,37 0 1 1 74,0 z"
       transform="matrix(1.523368,0,0,1.523368,2.7534924,920.62276)" />
    <path
       transform="matrix(2.5866591,0,0,2.5866591,-196.08195,841.93922)"
       d="m 224,74 a 37,37 0 1 1 -74,0 37,37 0 1 1 74,0 z"
       sodipodi:ry="37"
       sodipodi:rx="37"
       sodipodi:cy="74"
       sodipodi:cx="187"
       id="path3801"
       style="fill:none;stroke:#ffffff;stroke-width:5;stroke-miterlimit:4;stroke-opacity:1;stroke-dasharray:none"
       sodipodi:type="arc" />
    <path
       transform="matrix(0.39240506,0,0,0.39240506,588.24356,935.31402)"
       d="m 224,74 a 37,37 0 1 1 -74,0 37,37 0 1 1 74,0 z"
       sodipodi:ry="37"
       sodipodi:rx="37"
       sodipodi:cy="74"
       sodipodi:cx="187"
       id="path3803"
       style="fill:none;stroke:#ffffff;stroke-width:5;stroke-miterlimit:4;stroke-opacity:1;stroke-dasharray:none"
       sodipodi:type="arc" />
    <path
       sodipodi:type="arc"
       style="fill:none;stroke:#ffffff;stroke-width:5;stroke-miterlimit:4;stroke-opacity:1;stroke-dasharray:none"
       id="path3805"
       sodipodi:cx="187"
       sodipodi:cy="74"
       sodipodi:rx="37"
       sodipodi:ry="37"
       d="m 224,74 a 37,37 0 1 1 -74,0 37,37 0 1 1 74,0 z"
       transform="matrix(0.21518987,0,0,0.21518987,804.3828,994.42794)" />
    <path
       sodipodi:type="arc"
       style="fill:none;stroke:#ffffff;stroke-width:5;stroke-miterlimit:4;stroke-opacity:1;stroke-dasharray:none"
       id="path3807"
       sodipodi:cx="187"
       sodipodi:cy="74"
       sodipodi:rx="37"
       sodipodi:ry="37"
       d="m 224,74 a 37,37 0 1 1 -74,0 37,37 0 1 1 74,0 z"
       transform="matrix(0.82278481,0,0,0.82278481,766.12165,825.92882)" />
    <path
       transform="matrix(1.4556962,0,0,1.4556962,647.76722,779.09338)"
       d="m 224,74 a 37,37 0 1 1 -74,0 37,37 0 1 1 74,0 z"
       sodipodi:ry="37"
       sodipodi:rx="37"
       sodipodi:cy="74"
       sodipodi:cx="187"
       id="path3809"
       style="fill:none;stroke:#ffffff;stroke-width:5;stroke-miterlimit:4;stroke-opacity:1;stroke-dasharray:none"
       sodipodi:type="arc" />
    <path
       sodipodi:type="arc"
       style="fill:#ffffff;fill-opacity:1;stroke:none"
       id="path3814"
       sodipodi:cx="269.5"
       sodipodi:cy="-17.5"
       sodipodi:rx="17.5"
       sodipodi:ry="17.5"
       d="m 287,-17.5 a 17.5,17.5 0 1 1 -35,0 17.5,17.5 0 1 1 35,0 z"
       transform="matrix(0.77142857,0,0,0.77142857,210.93498,956.7698)" />
    <path
       sodipodi:type="arc"
       style="fill:none;stroke:#ffffff;stroke-width:5;stroke-miterlimit:4;stroke-opacity:1;stroke-dasharray:none"
       id="path3816"
       sodipodi:cx="187"
       sodipodi:cy="74"
       sodipodi:rx="37"
       sodipodi:ry="37"
       d="m 224,74 a 37,37 0 1 1 -74,0 37,37 0 1 1 74,0 z"
       transform="matrix(0.29113924,0,0,0.29113924,406.18027,1020.0457)" />
    <path
       sodipodi:type="arc"
       style="fill:none;stroke:#ffffff;stroke-width:5;stroke-miterlimit:4;stroke-opacity:1;stroke-dasharray:none"
       id="path3818"
       sodipodi:cx="187"
       sodipodi:cy="74"
       sodipodi:rx="37"
       sodipodi:ry="37"
       d="m 224,74 a 37,37 0 1 1 -74,0 37,37 0 1 1 74,0 z"
       transform="matrix(0.29113924,0,0,0.29113924,448.18027,837.80769)" />
    <path
       transform="matrix(0.59493671,0,0,0.59493671,391.37014,815.32668)"
       d="m 224,74 a 37,37 0 1 1 -74,0 37,37 0 1 1 74,0 z"
       sodipodi:ry="37"
       sodipodi:rx="37"
       sodipodi:cy="74"
       sodipodi:cx="187"
       id="path3820"
       style="fill:none;stroke:#ffffff;stroke-width:5;stroke-miterlimit:4;stroke-opacity:1;stroke-dasharray:none"
       sodipodi:type="arc" />
    <path
       sodipodi:type="arc"
       style="fill:none;stroke:#ffffff;stroke-width:5;stroke-miterlimit:4;stroke-opacity:1;stroke-dasharray:none"
       id="path3822"
       sodipodi:cx="187"
       sodipodi:cy="74"
       sodipodi:rx="37"
       sodipodi:ry="37"
       d="m 224,74 a 37,37 0 1 1 -74,0 37,37 0 1 1 74,0 z"
       transform="matrix(0.29113924,0,0,0.29113924,509.18027,918.80769)" />
    <path
       transform="matrix(0.34177215,0,0,0.34177215,683.71192,998.06085)"
       d="m 224,74 a 37,37 0 1 1 -74,0 37,37 0 1 1 74,0 z"
       sodipodi:ry="37"
       sodipodi:rx="37"
       sodipodi:cy="74"
       sodipodi:cx="187"
       id="path3824"
       style="fill:none;stroke:#ffffff;stroke-width:5;stroke-miterlimit:4;stroke-opacity:1;stroke-dasharray:none"
       sodipodi:type="arc" />
    <path
       sodipodi:type="arc"
       style="fill:#ffffff;fill-opacity:1;stroke:none"
       id="path3826"
       sodipodi:cx="269.5"
       sodipodi:cy="-17.5"
       sodipodi:rx="17.5"
       sodipodi:ry="17.5"
       d="m 287,-17.5 a 17.5,17.5 0 1 1 -35,0 17.5,17.5 0 1 1 35,0 z"
       transform="matrix(0.54285712,0,0,0.54285712,3.36433,914.43069)" />
  </g>
</svg>
