<?xml version="1.0" encoding="UTF-8" standalone="no"?>
<!-- Created with Inkscape (http://www.inkscape.org/) -->

<svg
   xmlns:dc="http://purl.org/dc/elements/1.1/"
   xmlns:cc="http://creativecommons.org/ns#"
   xmlns:rdf="http://www.w3.org/1999/02/22-rdf-syntax-ns#"
   xmlns:svg="http://www.w3.org/2000/svg"
   xmlns="http://www.w3.org/2000/svg"
   xmlns:sodipodi="http://sodipodi.sourceforge.net/DTD/sodipodi-0.dtd"
   xmlns:inkscape="http://www.inkscape.org/namespaces/inkscape"
   width="900"
   height="500"
   id="svg2"
   version="1.1"
   inkscape:version="0.48.2 r9819"
   sodipodi:docname="ContentBackground.svg"
   inkscape:export-filename="C:\nmp\html\SilexBoard\Board\styles\Standard\images\ContentBackground.png"
   inkscape:export-xdpi="90"
   inkscape:export-ydpi="90">
  <defs
     id="defs4">
    <inkscape:perspective
       sodipodi:type="inkscape:persp3d"
       inkscape:vp_x="0 : 250 : 1"
       inkscape:vp_y="0 : 1000 : 0"
       inkscape:vp_z="900 : 250 : 1"
       inkscape:persp3d-origin="450 : 166.66667 : 1"
       id="perspective5032" />
  </defs>
  <sodipodi:namedview
     id="base"
     pagecolor="#ffffff"
     bordercolor="#666666"
     borderopacity="1.0"
     inkscape:pageopacity="0.0"
     inkscape:pageshadow="2"
     inkscape:zoom="1"
     inkscape:cx="240.3169"
     inkscape:cy="242.30578"
     inkscape:document-units="px"
     inkscape:current-layer="layer1"
     showgrid="true"
     gridtolerance="10"
     objecttolerance="10"
     guidetolerance="10"
     inkscape:window-width="1366"
     inkscape:window-height="706"
     inkscape:window-x="-8"
     inkscape:window-y="-8"
     inkscape:window-maximized="1">
    <inkscape:grid
       type="xygrid"
       id="grid4099"
       empspacing="1"
       visible="true"
       enabled="true"
       snapvisiblegridlinesonly="true"
       spacingx="900px"
       spacingy="500px" />
  </sodipodi:namedview>
  <metadata
     id="metadata7">
    <rdf:RDF>
      <cc:Work
         rdf:about="">
        <dc:format>image/svg+xml</dc:format>
        <dc:type
           rdf:resource="http://purl.org/dc/dcmitype/StillImage" />
        <dc:title></dc:title>
      </cc:Work>
    </rdf:RDF>
  </metadata>
  <g
     inkscape:label="Ebene 1"
     inkscape:groupmode="layer"
     id="layer1"
     transform="translate(0,-552.36218)">
    <path
       sodipodi:type="arc"
       style="fill:none;stroke:#000000;stroke-width:15;stroke-miterlimit:4;stroke-opacity:1;stroke-dasharray:none"
       id="path4875"
       sodipodi:cx="188.5"
       sodipodi:cy="111.5"
       sodipodi:rx="67.5"
       sodipodi:ry="67.5"
       d="m 256,111.5 a 67.5,67.5 0 1 1 -135,0 67.5,67.5 0 1 1 135,0 z"
       transform="matrix(1.1266667,0,0,1.1266667,60.62333,437.73885)" />
    <path
       transform="matrix(0.5266667,0,0,0.5266667,91.723333,629.63885)"
       d="m 256,111.5 a 67.5,67.5 0 1 1 -135,0 67.5,67.5 0 1 1 135,0 z"
       sodipodi:ry="67.5"
       sodipodi:rx="67.5"
       sodipodi:cy="111.5"
       sodipodi:cx="188.5"
       id="path4879"
       style="fill:none;stroke:#000000;stroke-width:15;stroke-miterlimit:4;stroke-opacity:1;stroke-dasharray:none"
       sodipodi:type="arc" />
    <path
       transform="matrix(0.64,0,0,0.64,657.86,642.50218)"
       d="m 256,111.5 a 67.5,67.5 0 1 1 -135,0 67.5,67.5 0 1 1 135,0 z"
       sodipodi:ry="67.5"
       sodipodi:rx="67.5"
       sodipodi:cy="111.5"
       sodipodi:cx="188.5"
       id="path4883"
       style="fill:none;stroke:#000000;stroke-width:15;stroke-miterlimit:4;stroke-opacity:1;stroke-dasharray:none"
       sodipodi:type="arc" />
    <path
       sodipodi:type="arc"
       style="fill:none;stroke:#000000;stroke-width:15;stroke-miterlimit:4;stroke-opacity:1;stroke-dasharray:none"
       id="path4885"
       sodipodi:cx="188.5"
       sodipodi:cy="111.5"
       sodipodi:rx="67.5"
       sodipodi:ry="67.5"
       d="m 256,111.5 a 67.5,67.5 0 1 1 -135,0 67.5,67.5 0 1 1 135,0 z"
       transform="matrix(1.48,0,0,1.48,365.52,419.84218)" />
    <path
       transform="translate(250,538.36218)"
       d="m 256,111.5 a 67.5,67.5 0 1 1 -135,0 67.5,67.5 0 1 1 135,0 z"
       sodipodi:ry="67.5"
       sodipodi:rx="67.5"
       sodipodi:cy="111.5"
       sodipodi:cx="188.5"
       id="path4887"
       style="fill:none;stroke:#000000;stroke-width:15;stroke-miterlimit:4;stroke-opacity:1;stroke-dasharray:none"
       sodipodi:type="arc" />
    <path
       sodipodi:type="arc"
       style="fill:none;stroke:#000000;stroke-width:15;stroke-miterlimit:4;stroke-opacity:1;stroke-dasharray:none"
       id="path4889"
       sodipodi:cx="188.5"
       sodipodi:cy="111.5"
       sodipodi:rx="67.5"
       sodipodi:ry="67.5"
       d="m 256,111.5 a 67.5,67.5 0 1 1 -135,0 67.5,67.5 0 1 1 135,0 z"
       transform="matrix(0.44666666,0,0,0.44666666,589.80334,690.55884)" />
    <path
       style="font-size:medium;font-style:normal;font-variant:normal;font-weight:normal;font-stretch:normal;text-indent:0;text-align:start;text-decoration:none;line-height:normal;letter-spacing:normal;word-spacing:normal;text-transform:none;direction:ltr;block-progression:tb;writing-mode:lr-tb;text-anchor:start;baseline-shift:baseline;color:#000000;fill:#000000;fill-opacity:1;stroke:none;stroke-width:15;marker:none;visibility:visible;display:inline;overflow:visible;enable-background:accumulate;font-family:Sans;-inkscape-font-specification:Sans"
       d="M 40.777777,518.58441 C -14.760883,518.58441 -60,563.82352 -60,619.36218 c 0,55.53866 45.239117,100.77778 100.777777,100.77778 55.538661,0 100.777773,-45.23912 100.777773,-100.77778 0,-55.53866 -45.239112,-100.77777 -100.777773,-100.77777 z m 0,20.15555 c 44.645792,0 80.622223,35.97643 80.622223,80.62222 0,44.64579 -35.976431,80.62222 -80.622223,80.62222 -44.6457912,0 -80.622222,-35.97643 -80.622222,-80.62222 0,-44.64579 35.9764308,-80.62222 80.622222,-80.62222 z"
       id="path4891"
       inkscape:connector-curvature="0" />
    <path
       transform="matrix(0.54,0,0,0.54,452.21,659.15218)"
       d="m 256,111.5 a 67.5,67.5 0 1 1 -135,0 67.5,67.5 0 1 1 135,0 z"
       sodipodi:ry="67.5"
       sodipodi:rx="67.5"
       sodipodi:cy="111.5"
       sodipodi:cx="188.5"
       id="path4893"
       style="fill:none;stroke:#000000;stroke-width:15;stroke-miterlimit:4;stroke-opacity:1;stroke-dasharray:none"
       sodipodi:type="arc" />
    <path
       sodipodi:type="arc"
       style="fill:none;stroke:#000000;stroke-width:15;stroke-miterlimit:4;stroke-opacity:1;stroke-dasharray:none"
       id="path4895"
       sodipodi:cx="188.5"
       sodipodi:cy="111.5"
       sodipodi:rx="67.5"
       sodipodi:ry="67.5"
       d="m 256,111.5 a 67.5,67.5 0 1 1 -135,0 67.5,67.5 0 1 1 135,0 z"
       transform="matrix(0.64666667,0,0,0.64666667,188.10333,643.25885)" />
    <path
       transform="matrix(0.34666667,0,0,0.34666667,333.15333,721.20885)"
       d="m 256,111.5 a 67.5,67.5 0 1 1 -135,0 67.5,67.5 0 1 1 135,0 z"
       sodipodi:ry="67.5"
       sodipodi:rx="67.5"
       sodipodi:cy="111.5"
       sodipodi:cx="188.5"
       id="path4897"
       style="fill:none;stroke:#000000;stroke-width:15;stroke-miterlimit:4;stroke-opacity:1;stroke-dasharray:none"
       sodipodi:type="arc" />
    <path
       sodipodi:type="arc"
       style="fill:none;stroke:#000000;stroke-width:15;stroke-miterlimit:4;stroke-opacity:1;stroke-dasharray:none"
       id="path4899"
       sodipodi:cx="188.5"
       sodipodi:cy="111.5"
       sodipodi:rx="67.5"
       sodipodi:ry="67.5"
       d="m 256,111.5 a 67.5,67.5 0 1 1 -135,0 67.5,67.5 0 1 1 135,0 z"
       transform="matrix(0.34666667,0,0,0.34666667,173.15333,751.20885)" />
    <path
       transform="matrix(0.52666667,0,0,0.52666667,25.72333,709.63885)"
       d="m 256,111.5 a 67.5,67.5 0 1 1 -135,0 67.5,67.5 0 1 1 135,0 z"
       sodipodi:ry="67.5"
       sodipodi:rx="67.5"
       sodipodi:cy="111.5"
       sodipodi:cx="188.5"
       id="path4901"
       style="fill:none;stroke:#000000;stroke-width:15;stroke-miterlimit:4;stroke-opacity:1;stroke-dasharray:none"
       sodipodi:type="arc" />
    <path
       sodipodi:type="arc"
       style="fill:none;stroke:#000000;stroke-width:15;stroke-miterlimit:4;stroke-opacity:1;stroke-dasharray:none"
       id="path4903"
       sodipodi:cx="188.5"
       sodipodi:cy="111.5"
       sodipodi:rx="67.5"
       sodipodi:ry="67.5"
       d="m 256,111.5 a 67.5,67.5 0 1 1 -135,0 67.5,67.5 0 1 1 135,0 z"
       transform="matrix(0.33407412,0,0,0.33407412,-17.972971,725.11292)" />
    <path
       transform="matrix(0.27407412,0,0,0.27407412,422.83703,725.30292)"
       d="m 256,111.5 a 67.5,67.5 0 1 1 -135,0 67.5,67.5 0 1 1 135,0 z"
       sodipodi:ry="67.5"
       sodipodi:rx="67.5"
       sodipodi:cy="111.5"
       sodipodi:cx="188.5"
       id="path4905"
       style="fill:none;stroke:#000000;stroke-width:15;stroke-miterlimit:4;stroke-opacity:1;stroke-dasharray:none"
       sodipodi:type="arc" />
    <path
       sodipodi:type="arc"
       style="fill:none;stroke:#000000;stroke-width:15;stroke-miterlimit:4;stroke-opacity:1;stroke-dasharray:none"
       id="path4907"
       sodipodi:cx="188.5"
       sodipodi:cy="111.5"
       sodipodi:rx="67.5"
       sodipodi:ry="67.5"
       d="m 256,111.5 a 67.5,67.5 0 1 1 -135,0 67.5,67.5 0 1 1 135,0 z"
       transform="matrix(0.22074079,0,0,0.22074079,574.89036,723.24959)" />
    <path
       transform="matrix(0.39407412,0,0,0.39407412,787.21703,738.92292)"
       d="m 256,111.5 a 67.5,67.5 0 1 1 -135,0 67.5,67.5 0 1 1 135,0 z"
       sodipodi:ry="67.5"
       sodipodi:rx="67.5"
       sodipodi:cy="111.5"
       sodipodi:cx="188.5"
       id="path4909"
       style="fill:none;stroke:#000000;stroke-width:15;stroke-miterlimit:4;stroke-opacity:1;stroke-dasharray:none"
       sodipodi:type="arc" />
    <path
       sodipodi:type="arc"
       style="fill:none;stroke:#000000;stroke-width:15;stroke-miterlimit:4;stroke-opacity:1;stroke-dasharray:none"
       id="path4911"
       sodipodi:cx="188.5"
       sodipodi:cy="111.5"
       sodipodi:rx="67.5"
       sodipodi:ry="67.5"
       d="m 256,111.5 a 67.5,67.5 0 1 1 -135,0 67.5,67.5 0 1 1 135,0 z"
       transform="matrix(0.26074079,0,0,0.26074079,742.35036,763.78959)" />
    <path
       transform="matrix(0.31407415,0,0,0.31407415,440.29703,524.34291)"
       d="m 256,111.5 a 67.5,67.5 0 1 1 -135,0 67.5,67.5 0 1 1 135,0 z"
       sodipodi:ry="67.5"
       sodipodi:rx="67.5"
       sodipodi:cy="111.5"
       sodipodi:cx="188.5"
       id="path4913"
       style="fill:none;stroke:#000000;stroke-width:15;stroke-miterlimit:4;stroke-opacity:1;stroke-dasharray:none"
       sodipodi:type="arc" />
    <path
       sodipodi:type="arc"
       style="fill:none;stroke:#000000;stroke-width:15;stroke-miterlimit:4;stroke-opacity:1;stroke-dasharray:none"
       id="path4915"
       sodipodi:cx="188.5"
       sodipodi:cy="111.5"
       sodipodi:rx="67.5"
       sodipodi:ry="67.5"
       d="m 256,111.5 a 67.5,67.5 0 1 1 -135,0 67.5,67.5 0 1 1 135,0 z"
       transform="matrix(0.42740748,0,0,0.42740748,314.4337,496.70625)" />
    <path
       transform="matrix(0.32074085,0,0,0.32074085,96.54036,516.24958)"
       d="m 256,111.5 a 67.5,67.5 0 1 1 -135,0 67.5,67.5 0 1 1 135,0 z"
       sodipodi:ry="67.5"
       sodipodi:rx="67.5"
       sodipodi:cy="111.5"
       sodipodi:cx="188.5"
       id="path4917"
       style="fill:none;stroke:#000000;stroke-width:15;stroke-miterlimit:4;stroke-opacity:1;stroke-dasharray:none"
       sodipodi:type="arc" />
    <path
       sodipodi:type="arc"
       style="fill:none;stroke:#000000;stroke-width:15;stroke-miterlimit:4;stroke-opacity:1;stroke-dasharray:none"
       id="path4919"
       sodipodi:cx="188.5"
       sodipodi:cy="111.5"
       sodipodi:rx="67.5"
       sodipodi:ry="67.5"
       d="m 256,111.5 a 67.5,67.5 0 1 1 -135,0 67.5,67.5 0 1 1 135,0 z"
       transform="matrix(0.22740751,0,0,0.22740751,133.1337,587.65624)" />
    <path
       inkscape:connector-curvature="0"
       id="path4928"
       d="M 940.77778,518.58441 C 885.23912,518.58441 840,563.82352 840,619.36218 c 0,55.53866 45.23912,100.77778 100.77778,100.77778 55.53866,0 100.77782,-45.23912 100.77782,-100.77778 0,-55.53866 -45.23916,-100.77777 -100.77782,-100.77777 z m 0,20.15555 c 44.64579,0 80.62222,35.97643 80.62222,80.62222 0,44.64579 -35.97643,80.62222 -80.62222,80.62222 -44.64579,0 -80.62222,-35.97643 -80.62222,-80.62222 0,-44.64579 35.97643,-80.62222 80.62222,-80.62222 z"
       style="font-size:medium;font-style:normal;font-variant:normal;font-weight:normal;font-stretch:normal;text-indent:0;text-align:start;text-decoration:none;line-height:normal;letter-spacing:normal;word-spacing:normal;text-transform:none;direction:ltr;block-progression:tb;writing-mode:lr-tb;text-anchor:start;baseline-shift:baseline;color:#000000;fill:#000000;fill-opacity:1;stroke:none;stroke-width:15;marker:none;visibility:visible;display:inline;overflow:visible;enable-background:accumulate;font-family:Sans;-inkscape-font-specification:Sans" />
    <path
       sodipodi:type="arc"
       style="fill:none;stroke:#000000;stroke-width:15;stroke-miterlimit:4;stroke-opacity:1;stroke-dasharray:none"
       id="path4930"
       sodipodi:cx="188.5"
       sodipodi:cy="111.5"
       sodipodi:rx="67.5"
       sodipodi:ry="67.5"
       d="m 256,111.5 a 67.5,67.5 0 1 1 -135,0 67.5,67.5 0 1 1 135,0 z"
       transform="matrix(0.36074079,0,0,0.36074079,731.00036,581.13959)" />
    <path
       transform="matrix(0.20740746,0,0,0.20740746,738.40369,533.23625)"
       d="m 256,111.5 a 67.5,67.5 0 1 1 -135,0 67.5,67.5 0 1 1 135,0 z"
       sodipodi:ry="67.5"
       sodipodi:rx="67.5"
       sodipodi:cy="111.5"
       sodipodi:cx="188.5"
       id="path4932"
       style="fill:none;stroke:#000000;stroke-width:15;stroke-miterlimit:4;stroke-opacity:1;stroke-dasharray:none"
       sodipodi:type="arc" />
    <path
       sodipodi:type="arc"
       style="fill:none;stroke:#000000;stroke-width:15;stroke-miterlimit:4;stroke-opacity:1;stroke-dasharray:none"
       id="path4934"
       sodipodi:cx="188.5"
       sodipodi:cy="111.5"
       sodipodi:rx="67.5"
       sodipodi:ry="67.5"
       d="m 256,111.5 a 67.5,67.5 0 1 1 -135,0 67.5,67.5 0 1 1 135,0 z"
       transform="matrix(0.13407413,0,0,0.13407413,796.72702,554.46292)" />
    <path
       transform="matrix(0.26074079,0,0,0.26074079,808.35036,690.78959)"
       d="m 256,111.5 a 67.5,67.5 0 1 1 -135,0 67.5,67.5 0 1 1 135,0 z"
       sodipodi:ry="67.5"
       sodipodi:rx="67.5"
       sodipodi:cy="111.5"
       sodipodi:cx="188.5"
       id="path4936"
       style="fill:none;stroke:#000000;stroke-width:15;stroke-miterlimit:4;stroke-opacity:1;stroke-dasharray:none"
       sodipodi:type="arc" />
    <path
       sodipodi:type="arc"
       style="fill:none;stroke:#000000;stroke-width:15;stroke-miterlimit:4;stroke-opacity:1;stroke-dasharray:none"
       id="path4938"
       sodipodi:cx="188.5"
       sodipodi:cy="111.5"
       sodipodi:rx="67.5"
       sodipodi:ry="67.5"
       d="m 256,111.5 a 67.5,67.5 0 1 1 -135,0 67.5,67.5 0 1 1 135,0 z"
       transform="matrix(0.18148155,0,0,0.18148155,865.79073,723.127)" />
    <path
       transform="matrix(0.18148155,0,0,0.18148155,-34.20927,723.127)"
       d="m 256,111.5 a 67.5,67.5 0 1 1 -135,0 67.5,67.5 0 1 1 135,0 z"
       sodipodi:ry="67.5"
       sodipodi:rx="67.5"
       sodipodi:cy="111.5"
       sodipodi:cx="188.5"
       id="path4942"
       style="fill:none;stroke:#000000;stroke-width:15;stroke-miterlimit:4;stroke-opacity:1;stroke-dasharray:none"
       sodipodi:type="arc" />
    <path
       transform="matrix(0.15333333,0,0,0.15333333,163.09667,740.26551)"
       d="m 256,111.5 a 67.5,67.5 0 1 1 -135,0 67.5,67.5 0 1 1 135,0 z"
       sodipodi:ry="67.5"
       sodipodi:rx="67.5"
       sodipodi:cy="111.5"
       sodipodi:cx="188.5"
       id="path4946"
       style="fill:none;stroke:#000000;stroke-width:15;stroke-miterlimit:4;stroke-opacity:1;stroke-dasharray:none"
       sodipodi:type="arc" />
    <path
       sodipodi:type="arc"
       style="fill:none;stroke:#000000;stroke-width:15;stroke-miterlimit:4;stroke-opacity:1;stroke-dasharray:none"
       id="path4948"
       sodipodi:cx="188.5"
       sodipodi:cy="111.5"
       sodipodi:rx="67.5"
       sodipodi:ry="67.5"
       d="m 256,111.5 a 67.5,67.5 0 1 1 -135,0 67.5,67.5 0 1 1 135,0 z"
       transform="matrix(0.16666666,0,0,0.16666666,268.58334,773.77884)" />
    <path
       transform="matrix(0.21333333,0,0,0.21333333,316.28667,780.07551)"
       d="m 256,111.5 a 67.5,67.5 0 1 1 -135,0 67.5,67.5 0 1 1 135,0 z"
       sodipodi:ry="67.5"
       sodipodi:rx="67.5"
       sodipodi:cy="111.5"
       sodipodi:cx="188.5"
       id="path4950"
       style="fill:none;stroke:#000000;stroke-width:15;stroke-miterlimit:4;stroke-opacity:1;stroke-dasharray:none"
       sodipodi:type="arc" />
    <path
       sodipodi:type="arc"
       style="fill:none;stroke:#000000;stroke-width:15;stroke-miterlimit:4;stroke-opacity:1;stroke-dasharray:none"
       id="path4952"
       sodipodi:cx="188.5"
       sodipodi:cy="111.5"
       sodipodi:rx="67.5"
       sodipodi:ry="67.5"
       d="m 256,111.5 a 67.5,67.5 0 1 1 -135,0 67.5,67.5 0 1 1 135,0 z"
       transform="matrix(0.21333333,0,0,0.21333333,405.28667,780.07551)" />
    <path
       transform="matrix(0.24666666,0,0,0.24666666,477.50334,766.85884)"
       d="m 256,111.5 a 67.5,67.5 0 1 1 -135,0 67.5,67.5 0 1 1 135,0 z"
       sodipodi:ry="67.5"
       sodipodi:rx="67.5"
       sodipodi:cy="111.5"
       sodipodi:cx="188.5"
       id="path4954"
       style="fill:none;stroke:#000000;stroke-width:15;stroke-miterlimit:4;stroke-opacity:1;stroke-dasharray:none"
       sodipodi:type="arc" />
    <path
       sodipodi:type="arc"
       style="fill:none;stroke:#000000;stroke-width:15;stroke-miterlimit:4;stroke-opacity:1;stroke-dasharray:none"
       id="path4956"
       sodipodi:cx="188.5"
       sodipodi:cy="111.5"
       sodipodi:rx="67.5"
       sodipodi:ry="67.5"
       d="m 256,111.5 a 67.5,67.5 0 1 1 -135,0 67.5,67.5 0 1 1 135,0 z"
       transform="matrix(0.18666666,0,0,0.18666666,559.31334,778.04884)" />
    <path
       transform="matrix(0.13999999,0,0,0.13999999,698.61001,766.75217)"
       d="m 256,111.5 a 67.5,67.5 0 1 1 -135,0 67.5,67.5 0 1 1 135,0 z"
       sodipodi:ry="67.5"
       sodipodi:rx="67.5"
       sodipodi:cy="111.5"
       sodipodi:cx="188.5"
       id="path4958"
       style="fill:none;stroke:#000000;stroke-width:15;stroke-miterlimit:4;stroke-opacity:1;stroke-dasharray:none"
       sodipodi:type="arc" />
    <path
       sodipodi:type="arc"
       style="fill:none;stroke:#000000;stroke-width:15;stroke-miterlimit:4;stroke-opacity:1;stroke-dasharray:none"
       id="path4960"
       sodipodi:cx="188.5"
       sodipodi:cy="111.5"
       sodipodi:rx="67.5"
       sodipodi:ry="67.5"
       d="m 256,111.5 a 67.5,67.5 0 1 1 -135,0 67.5,67.5 0 1 1 135,0 z"
       transform="matrix(0.23333332,0,0,0.23333332,604.01668,806.3455)" />
    <path
       transform="matrix(0.14666665,0,0,0.14666665,719.85335,833.50883)"
       d="m 256,111.5 a 67.5,67.5 0 1 1 -135,0 67.5,67.5 0 1 1 135,0 z"
       sodipodi:ry="67.5"
       sodipodi:rx="67.5"
       sodipodi:cy="111.5"
       sodipodi:cx="188.5"
       id="path4962"
       style="fill:none;stroke:#000000;stroke-width:15;stroke-miterlimit:4;stroke-opacity:1;stroke-dasharray:none"
       sodipodi:type="arc" />
    <path
       sodipodi:type="arc"
       style="fill:none;stroke:#000000;stroke-width:15;stroke-miterlimit:4;stroke-opacity:1;stroke-dasharray:none"
       id="path4964"
       sodipodi:cx="188.5"
       sodipodi:cy="111.5"
       sodipodi:rx="67.5"
       sodipodi:ry="67.5"
       d="m 256,111.5 a 67.5,67.5 0 1 1 -135,0 67.5,67.5 0 1 1 135,0 z"
       transform="matrix(0.17333332,0,0,0.17333332,791.82668,839.5355)" />
    <path
       transform="matrix(0.13333332,0,0,0.13333332,865.86667,831.9955)"
       d="m 256,111.5 a 67.5,67.5 0 1 1 -135,0 67.5,67.5 0 1 1 135,0 z"
       sodipodi:ry="67.5"
       sodipodi:rx="67.5"
       sodipodi:cy="111.5"
       sodipodi:cx="188.5"
       id="path4966"
       style="fill:none;stroke:#000000;stroke-width:15;stroke-miterlimit:4;stroke-opacity:1;stroke-dasharray:none"
       sodipodi:type="arc" />
    <path
       transform="matrix(0.13333332,0,0,0.13333332,576.36668,867.9955)"
       d="m 256,111.5 a 67.5,67.5 0 1 1 -135,0 67.5,67.5 0 1 1 135,0 z"
       sodipodi:ry="67.5"
       sodipodi:rx="67.5"
       sodipodi:cy="111.5"
       sodipodi:cx="188.5"
       id="path4968"
       style="fill:none;stroke:#000000;stroke-width:15;stroke-miterlimit:4;stroke-opacity:1;stroke-dasharray:none"
       sodipodi:type="arc" />
    <path
       sodipodi:type="arc"
       style="fill:none;stroke:#000000;stroke-width:15;stroke-miterlimit:4;stroke-opacity:1;stroke-dasharray:none"
       id="path4970"
       sodipodi:cx="188.5"
       sodipodi:cy="111.5"
       sodipodi:rx="67.5"
       sodipodi:ry="67.5"
       d="m 256,111.5 a 67.5,67.5 0 1 1 -135,0 67.5,67.5 0 1 1 135,0 z"
       transform="matrix(0.15999999,0,0,0.15999999,504.34001,841.02217)" />
    <path
       transform="matrix(0.10666666,0,0,0.10666666,445.39334,857.96884)"
       d="m 256,111.5 a 67.5,67.5 0 1 1 -135,0 67.5,67.5 0 1 1 135,0 z"
       sodipodi:ry="67.5"
       sodipodi:rx="67.5"
       sodipodi:cy="111.5"
       sodipodi:cx="188.5"
       id="path4972"
       style="fill:none;stroke:#000000;stroke-width:15;stroke-miterlimit:4;stroke-opacity:1;stroke-dasharray:none"
       sodipodi:type="arc" />
    <path
       sodipodi:type="arc"
       style="fill:none;stroke:#000000;stroke-width:15;stroke-miterlimit:4;stroke-opacity:1;stroke-dasharray:none"
       id="path4974"
       sodipodi:cx="188.5"
       sodipodi:cy="111.5"
       sodipodi:rx="67.5"
       sodipodi:ry="67.5"
       d="m 256,111.5 a 67.5,67.5 0 1 1 -135,0 67.5,67.5 0 1 1 135,0 z"
       transform="matrix(0.14666666,0,0,0.14666666,372.85334,831.50884)" />
    <path
       transform="matrix(0.07999999,0,0,0.07999999,309.42001,846.94217)"
       d="m 256,111.5 a 67.5,67.5 0 1 1 -135,0 67.5,67.5 0 1 1 135,0 z"
       sodipodi:ry="67.5"
       sodipodi:rx="67.5"
       sodipodi:cy="111.5"
       sodipodi:cx="188.5"
       id="path4976"
       style="fill:none;stroke:#000000;stroke-width:15;stroke-miterlimit:4;stroke-opacity:1;stroke-dasharray:none"
       sodipodi:type="arc" />
    <path
       sodipodi:type="arc"
       style="fill:none;stroke:#000000;stroke-width:15;stroke-miterlimit:4;stroke-opacity:1;stroke-dasharray:none"
       id="path4978"
       sodipodi:cx="188.5"
       sodipodi:cy="111.5"
       sodipodi:rx="67.5"
       sodipodi:ry="67.5"
       d="m 256,111.5 a 67.5,67.5 0 1 1 -135,0 67.5,67.5 0 1 1 135,0 z"
       transform="matrix(0.21333332,0,0,0.21333332,234.28668,861.0755)" />
    <path
       transform="matrix(0.17999999,0,0,0.17999999,167.07001,822.29217)"
       d="m 256,111.5 a 67.5,67.5 0 1 1 -135,0 67.5,67.5 0 1 1 135,0 z"
       sodipodi:ry="67.5"
       sodipodi:rx="67.5"
       sodipodi:cy="111.5"
       sodipodi:cx="188.5"
       id="path4980"
       style="fill:none;stroke:#000000;stroke-width:15;stroke-miterlimit:4;stroke-opacity:1;stroke-dasharray:none"
       sodipodi:type="arc" />
    <path
       sodipodi:type="arc"
       style="fill:none;stroke:#000000;stroke-width:15;stroke-miterlimit:4;stroke-opacity:1;stroke-dasharray:none"
       id="path4982"
       sodipodi:cx="188.5"
       sodipodi:cy="111.5"
       sodipodi:rx="67.5"
       sodipodi:ry="67.5"
       d="m 256,111.5 a 67.5,67.5 0 1 1 -135,0 67.5,67.5 0 1 1 135,0 z"
       transform="matrix(0.11333332,0,0,0.11333332,92.636677,845.7255)" />
    <path
       transform="matrix(0.14666665,0,0,0.14666665,134.85335,894.50883)"
       d="m 256,111.5 a 67.5,67.5 0 1 1 -135,0 67.5,67.5 0 1 1 135,0 z"
       sodipodi:ry="67.5"
       sodipodi:rx="67.5"
       sodipodi:cy="111.5"
       sodipodi:cx="188.5"
       id="path4984"
       style="fill:none;stroke:#000000;stroke-width:15;stroke-miterlimit:4;stroke-opacity:1;stroke-dasharray:none"
       sodipodi:type="arc" />
    <path
       sodipodi:type="arc"
       style="fill:none;stroke:#000000;stroke-width:15;stroke-miterlimit:4;stroke-opacity:1;stroke-dasharray:none"
       id="path4986"
       sodipodi:cx="188.5"
       sodipodi:cy="111.5"
       sodipodi:rx="67.5"
       sodipodi:ry="67.5"
       d="m 256,111.5 a 67.5,67.5 0 1 1 -135,0 67.5,67.5 0 1 1 135,0 z"
       transform="matrix(0.21333332,0,0,0.21333332,10.286683,814.0755)" />
    <path
       transform="matrix(0.15333332,0,0,0.15333332,-24.903331,876.2655)"
       d="m 256,111.5 a 67.5,67.5 0 1 1 -135,0 67.5,67.5 0 1 1 135,0 z"
       sodipodi:ry="67.5"
       sodipodi:rx="67.5"
       sodipodi:cy="111.5"
       sodipodi:cx="188.5"
       id="path4988"
       style="fill:none;stroke:#000000;stroke-width:15;stroke-miterlimit:4;stroke-opacity:1;stroke-dasharray:none"
       sodipodi:type="arc" />
    <path
       sodipodi:type="arc"
       style="fill:none;stroke:#000000;stroke-width:15;stroke-miterlimit:4;stroke-opacity:1;stroke-dasharray:none"
       id="path4992"
       sodipodi:cx="188.5"
       sodipodi:cy="111.5"
       sodipodi:rx="67.5"
       sodipodi:ry="67.5"
       d="m 256,111.5 a 67.5,67.5 0 1 1 -135,0 67.5,67.5 0 1 1 135,0 z"
       transform="matrix(0.15333332,0,0,0.15333332,875.09667,876.2655)" />
    <path
       sodipodi:type="arc"
       style="fill:none;stroke:#000000;stroke-width:15;stroke-miterlimit:4;stroke-opacity:1;stroke-dasharray:none"
       id="path4994"
       sodipodi:cx="188.5"
       sodipodi:cy="111.5"
       sodipodi:rx="67.5"
       sodipodi:ry="67.5"
       d="m 256,111.5 a 67.5,67.5 0 1 1 -135,0 67.5,67.5 0 1 1 135,0 z"
       transform="matrix(0.07333332,0,0,0.07333332,216.17668,950.1855)" />
    <path
       transform="matrix(0.09333332,0,0,0.09333332,70.90668,936.4555)"
       d="m 256,111.5 a 67.5,67.5 0 1 1 -135,0 67.5,67.5 0 1 1 135,0 z"
       sodipodi:ry="67.5"
       sodipodi:rx="67.5"
       sodipodi:cy="111.5"
       sodipodi:cx="188.5"
       id="path4996"
       style="fill:none;stroke:#000000;stroke-width:15;stroke-miterlimit:4;stroke-opacity:1;stroke-dasharray:none"
       sodipodi:type="arc" />
    <path
       sodipodi:type="arc"
       style="fill:none;stroke:#000000;stroke-width:15;stroke-miterlimit:4;stroke-opacity:1;stroke-dasharray:none"
       id="path4998"
       sodipodi:cx="188.5"
       sodipodi:cy="111.5"
       sodipodi:rx="67.5"
       sodipodi:ry="67.5"
       d="m 256,111.5 a 67.5,67.5 0 1 1 -135,0 67.5,67.5 0 1 1 135,0 z"
       transform="matrix(0.05999999,0,0,0.05999999,53.690013,896.67217)" />
    <path
       transform="matrix(0.04666666,0,0,0.04666666,17.203346,974.15884)"
       d="m 256,111.5 a 67.5,67.5 0 1 1 -135,0 67.5,67.5 0 1 1 135,0 z"
       sodipodi:ry="67.5"
       sodipodi:rx="67.5"
       sodipodi:cy="111.5"
       sodipodi:cx="188.5"
       id="path5000"
       style="fill:none;stroke:#000000;stroke-width:15;stroke-miterlimit:4;stroke-opacity:1;stroke-dasharray:none"
       sodipodi:type="arc" />
    <path
       sodipodi:type="arc"
       style="fill:none;stroke:#000000;stroke-width:15;stroke-miterlimit:4;stroke-opacity:1;stroke-dasharray:none"
       id="path5002"
       sodipodi:cx="188.5"
       sodipodi:cy="111.5"
       sodipodi:rx="67.5"
       sodipodi:ry="67.5"
       d="m 256,111.5 a 67.5,67.5 0 1 1 -135,0 67.5,67.5 0 1 1 135,0 z"
       transform="matrix(0.06666666,0,0,0.06666666,170.93335,995.42884)" />
    <path
       transform="matrix(0.09999999,0,0,0.09999999,355.15002,906.21217)"
       d="m 256,111.5 a 67.5,67.5 0 1 1 -135,0 67.5,67.5 0 1 1 135,0 z"
       sodipodi:ry="67.5"
       sodipodi:rx="67.5"
       sodipodi:cy="111.5"
       sodipodi:cx="188.5"
       id="path5004"
       style="fill:none;stroke:#000000;stroke-width:15;stroke-miterlimit:4;stroke-opacity:1;stroke-dasharray:none"
       sodipodi:type="arc" />
    <path
       sodipodi:type="arc"
       style="fill:none;stroke:#000000;stroke-width:15;stroke-miterlimit:4;stroke-opacity:1;stroke-dasharray:none"
       id="path5006"
       sodipodi:cx="188.5"
       sodipodi:cy="111.5"
       sodipodi:rx="67.5"
       sodipodi:ry="67.5"
       d="m 256,111.5 a 67.5,67.5 0 1 1 -135,0 67.5,67.5 0 1 1 135,0 z"
       transform="matrix(0.05999999,0,0,0.05999999,300.69002,962.67217)" />
    <path
       transform="matrix(0.10666666,0,0,0.10666666,441.39335,944.96884)"
       d="m 256,111.5 a 67.5,67.5 0 1 1 -135,0 67.5,67.5 0 1 1 135,0 z"
       sodipodi:ry="67.5"
       sodipodi:rx="67.5"
       sodipodi:cy="111.5"
       sodipodi:cx="188.5"
       id="path5008"
       style="fill:none;stroke:#000000;stroke-width:15;stroke-miterlimit:4;stroke-opacity:1;stroke-dasharray:none"
       sodipodi:type="arc" />
    <path
       sodipodi:type="arc"
       style="fill:none;stroke:#000000;stroke-width:15;stroke-miterlimit:4;stroke-opacity:1;stroke-dasharray:none"
       id="path5010"
       sodipodi:cx="188.5"
       sodipodi:cy="111.5"
       sodipodi:rx="67.5"
       sodipodi:ry="67.5"
       d="m 256,111.5 a 67.5,67.5 0 1 1 -135,0 67.5,67.5 0 1 1 135,0 z"
       transform="matrix(0.04666666,0,0,0.04666666,413.20335,1006.1588)" />
    <path
       transform="matrix(0.07333333,0,0,0.07333333,539.17668,941.18547)"
       d="m 256,111.5 a 67.5,67.5 0 1 1 -135,0 67.5,67.5 0 1 1 135,0 z"
       sodipodi:ry="67.5"
       sodipodi:rx="67.5"
       sodipodi:cy="111.5"
       sodipodi:cx="188.5"
       id="path5012"
       style="fill:none;stroke:#000000;stroke-width:15;stroke-miterlimit:4;stroke-opacity:1;stroke-dasharray:none"
       sodipodi:type="arc" />
    <path
       sodipodi:type="arc"
       style="fill:none;stroke:#000000;stroke-width:15;stroke-miterlimit:4;stroke-opacity:1;stroke-dasharray:none"
       id="path5014"
       sodipodi:cx="188.5"
       sodipodi:cy="111.5"
       sodipodi:rx="67.5"
       sodipodi:ry="67.5"
       d="m 256,111.5 a 67.5,67.5 0 1 1 -135,0 67.5,67.5 0 1 1 135,0 z"
       transform="matrix(0.11333333,0,0,0.11333333,675.63668,907.72547)" />
    <path
       transform="matrix(0.08,0,0,0.08,648.42001,880.94214)"
       d="m 256,111.5 a 67.5,67.5 0 1 1 -135,0 67.5,67.5 0 1 1 135,0 z"
       sodipodi:ry="67.5"
       sodipodi:rx="67.5"
       sodipodi:cy="111.5"
       sodipodi:cx="188.5"
       id="path5016"
       style="fill:none;stroke:#000000;stroke-width:15;stroke-miterlimit:4;stroke-opacity:1;stroke-dasharray:none"
       sodipodi:type="arc" />
    <path
       sodipodi:type="arc"
       style="fill:none;stroke:#000000;stroke-width:15;stroke-miterlimit:4;stroke-opacity:1;stroke-dasharray:none"
       id="path5018"
       sodipodi:cx="188.5"
       sodipodi:cy="111.5"
       sodipodi:rx="67.5"
       sodipodi:ry="67.5"
       d="m 256,111.5 a 67.5,67.5 0 1 1 -135,0 67.5,67.5 0 1 1 135,0 z"
       transform="matrix(0.11333333,0,0,0.11333333,680.63668,816.72547)" />
    <path
       transform="matrix(0.10666667,0,0,0.10666667,640.39334,782.96881)"
       d="m 256,111.5 a 67.5,67.5 0 1 1 -135,0 67.5,67.5 0 1 1 135,0 z"
       sodipodi:ry="67.5"
       sodipodi:rx="67.5"
       sodipodi:cy="111.5"
       sodipodi:cx="188.5"
       id="path5020"
       style="fill:none;stroke:#000000;stroke-width:15;stroke-miterlimit:4;stroke-opacity:1;stroke-dasharray:none"
       sodipodi:type="arc" />
    <path
       transform="matrix(0.06666666,0,0,0.06666666,756.93335,971.4288)"
       d="m 256,111.5 a 67.5,67.5 0 1 1 -135,0 67.5,67.5 0 1 1 135,0 z"
       sodipodi:ry="67.5"
       sodipodi:rx="67.5"
       sodipodi:cy="111.5"
       sodipodi:cx="188.5"
       id="path5022"
       style="fill:none;stroke:#000000;stroke-width:15;stroke-miterlimit:4;stroke-opacity:1;stroke-dasharray:none"
       sodipodi:type="arc" />
    <path
       sodipodi:type="arc"
       style="fill:none;stroke:#000000;stroke-width:15;stroke-miterlimit:4;stroke-opacity:1;stroke-dasharray:none"
       id="path5024"
       sodipodi:cx="188.5"
       sodipodi:cy="111.5"
       sodipodi:rx="67.5"
       sodipodi:ry="67.5"
       d="m 256,111.5 a 67.5,67.5 0 1 1 -135,0 67.5,67.5 0 1 1 135,0 z"
       transform="matrix(0.08666666,0,0,0.08666666,751.66335,893.6988)" />
    <path
       transform="matrix(0.11333333,0,0,0.11333333,827.63668,924.72547)"
       d="m 256,111.5 a 67.5,67.5 0 1 1 -135,0 67.5,67.5 0 1 1 135,0 z"
       sodipodi:ry="67.5"
       sodipodi:rx="67.5"
       sodipodi:cy="111.5"
       sodipodi:cx="188.5"
       id="path5026"
       style="fill:none;stroke:#000000;stroke-width:15;stroke-miterlimit:4;stroke-opacity:1;stroke-dasharray:none"
       sodipodi:type="arc" />
    <path
       sodipodi:type="arc"
       style="fill:none;stroke:#000000;stroke-width:15;stroke-miterlimit:4;stroke-opacity:1;stroke-dasharray:none"
       id="path5028"
       sodipodi:cx="188.5"
       sodipodi:cy="111.5"
       sodipodi:rx="67.5"
       sodipodi:ry="67.5"
       d="m 256,111.5 a 67.5,67.5 0 1 1 -135,0 67.5,67.5 0 1 1 135,0 z"
       transform="matrix(0.07148146,0,0,0.07148146,885.70075,985.56695)" />
    <path
       transform="matrix(0.07148146,0,0,0.07148146,-14.29925,985.56695)"
       d="m 256,111.5 a 67.5,67.5 0 1 1 -135,0 67.5,67.5 0 1 1 135,0 z"
       sodipodi:ry="67.5"
       sodipodi:rx="67.5"
       sodipodi:cy="111.5"
       sodipodi:cx="188.5"
       id="path5034"
       style="fill:none;stroke:#000000;stroke-width:15;stroke-miterlimit:4;stroke-opacity:1;stroke-dasharray:none"
       sodipodi:type="arc" />
    <path
       sodipodi:type="arc"
       style="fill:none;stroke:#000000;stroke-width:15;stroke-miterlimit:4;stroke-opacity:1;stroke-dasharray:none"
       id="path5036"
       sodipodi:cx="188.5"
       sodipodi:cy="111.5"
       sodipodi:rx="67.5"
       sodipodi:ry="67.5"
       d="m 256,111.5 a 67.5,67.5 0 1 1 -135,0 67.5,67.5 0 1 1 135,0 z"
       transform="matrix(0.03736787,0,0,0.03736787,88.956168,1027.5679)" />
    <path
       transform="matrix(0.03736787,0,0,0.03736787,339.95617,1029.5679)"
       d="m 256,111.5 a 67.5,67.5 0 1 1 -135,0 67.5,67.5 0 1 1 135,0 z"
       sodipodi:ry="67.5"
       sodipodi:rx="67.5"
       sodipodi:cy="111.5"
       sodipodi:cx="188.5"
       id="path5038"
       style="fill:none;stroke:#000000;stroke-width:15;stroke-miterlimit:4;stroke-opacity:1;stroke-dasharray:none"
       sodipodi:type="arc" />
    <path
       sodipodi:type="arc"
       style="fill:none;stroke:#000000;stroke-width:15;stroke-miterlimit:4;stroke-opacity:1;stroke-dasharray:none"
       id="path5040"
       sodipodi:cx="188.5"
       sodipodi:cy="111.5"
       sodipodi:rx="67.5"
       sodipodi:ry="67.5"
       d="m 256,111.5 a 67.5,67.5 0 1 1 -135,0 67.5,67.5 0 1 1 135,0 z"
       transform="matrix(0.03736787,0,0,0.03736787,622.95617,963.5679)" />
    <path
       transform="matrix(0.0307012,0,0,0.0307012,574.71284,1020.8112)"
       d="m 256,111.5 a 67.5,67.5 0 1 1 -135,0 67.5,67.5 0 1 1 135,0 z"
       sodipodi:ry="67.5"
       sodipodi:rx="67.5"
       sodipodi:cy="111.5"
       sodipodi:cx="188.5"
       id="path5042"
       style="fill:none;stroke:#000000;stroke-width:15;stroke-miterlimit:4;stroke-opacity:1;stroke-dasharray:none"
       sodipodi:type="arc" />
    <path
       sodipodi:type="arc"
       style="fill:none;stroke:#000000;stroke-width:15;stroke-miterlimit:4;stroke-opacity:1;stroke-dasharray:none"
       id="path5044"
       sodipodi:cx="188.5"
       sodipodi:cy="111.5"
       sodipodi:rx="67.5"
       sodipodi:ry="67.5"
       d="m 256,111.5 a 67.5,67.5 0 1 1 -135,0 67.5,67.5 0 1 1 135,0 z"
       transform="matrix(0.0307012,0,0,0.0307012,714.71284,1021.8112)" />
  </g>
</svg>
