<!-- Created with Inkscape (http://www.inkscape.org/) -->
<svg xmlns:rdf="http://www.w3.org/1999/02/22-rdf-syntax-ns#" xmlns="http://www.w3.org/2000/svg" height="120" width="120" version="1.1" xmlns:cc="http://creativecommons.org/ns#" xmlns:dc="http://purl.org/dc/elements/1.1/">
	<metadata>
		<rdf:RDF>
			<cc:Work rdf:about="">
				<dc:format>image/svg+xml</dc:format>
				<dc:type rdf:resource="http://purl.org/dc/dcmitype/StillImage"/>
				<dc:title/>
			</cc:Work>
		</rdf:RDF>
	</metadata>
	<g fill="#000" transform="translate(0,-902.36218)">
		<path opacity="0.02" d="M0,0,0,10.562,109.41,120,120,120,120,109.38,10.625,0,0,0z" transform="translate(0,902.36218)"/>
		<path opacity="0.02" d="M0,29.375,0,50.562,69.406,120,90.625,120,0,29.375z" transform="translate(0,902.36218)"/>
		<path opacity="0.02" d="M0,69.375,0,90.562,29.406,120,50.625,120,0,69.375z" transform="translate(0,902.36218)"/>
		<path opacity="0.02" d="M0,109.38,0,120,10.625,120,0,109.38z" transform="translate(0,902.36218)"/>
		<path opacity="0.02" d="M109.44,0,120,10.562,120,0,109.44,0z" transform="translate(0,902.36218)"/>
		<path opacity="0.02" d="M69.438,0,120,50.562,120,29.375,90.625,0,69.438,0z" transform="translate(0,902.36218)"/>
		<path opacity="0.02" d="M29.438,0,120,90.594,120,69.375,50.625,0,29.438,0z" transform="translate(0,902.36218)"/>
	</g>
</svg>
