<?xml version="1.0" encoding="UTF-8" standalone="no"?>
<!-- Created with Inkscape (http://www.inkscape.org/) -->

<svg
   xmlns:dc="http://purl.org/dc/elements/1.1/"
   xmlns:cc="http://creativecommons.org/ns#"
   xmlns:rdf="http://www.w3.org/1999/02/22-rdf-syntax-ns#"
   xmlns:svg="http://www.w3.org/2000/svg"
   xmlns="http://www.w3.org/2000/svg"
   xmlns:xlink="http://www.w3.org/1999/xlink"
   xmlns:sodipodi="http://sodipodi.sourceforge.net/DTD/sodipodi-0.dtd"
   xmlns:inkscape="http://www.inkscape.org/namespaces/inkscape"
   width="256"
   height="256"
   id="svg2"
   version="1.1"
   inkscape:version="0.48.1 "
   sodipodi:docname="Core Icon.svg"
   inkscape:export-filename="C:\xampp\htdocs\SilexBoard\Board\modules\Core\Icon.png"
   inkscape:export-xdpi="90"
   inkscape:export-ydpi="90">
  <title
     id="title4300">Silex Board: Core Icon</title>
  <defs
     id="defs4">
    <linearGradient
       inkscape:collect="always"
       id="linearGradient4242">
      <stop
         style="stop-color:#9ad8ee;stop-opacity:0.94294118"
         offset="0"
         id="stop4244" />
      <stop
         style="stop-color:#9ad8ee;stop-opacity:0.23232323"
         offset="1"
         id="stop4246" />
    </linearGradient>
    <linearGradient
       inkscape:collect="always"
       id="linearGradient3757">
      <stop
         style="stop-color:#176783;stop-opacity:1;"
         offset="0"
         id="stop3759" />
      <stop
         style="stop-color:#91d4ed;stop-opacity:1"
         offset="1"
         id="stop3761" />
    </linearGradient>
    <linearGradient
       inkscape:collect="always"
       xlink:href="#linearGradient3757"
       id="linearGradient3763"
       x1="186"
       y1="256"
       x2="52"
       y2="0"
       gradientUnits="userSpaceOnUse" />
    <filter
       inkscape:collect="always"
       id="filter4086"
       x="-0.18"
       width="1.36"
       y="-0.18"
       height="1.36">
      <feGaussianBlur
         inkscape:collect="always"
         stdDeviation="10.05"
         id="feGaussianBlur4088" />
    </filter>
    <filter
       inkscape:collect="always"
       id="filter4238">
      <feGaussianBlur
         inkscape:collect="always"
         stdDeviation="5.5078125"
         id="feGaussianBlur4240" />
    </filter>
    <linearGradient
       inkscape:collect="always"
       xlink:href="#linearGradient4242"
       id="linearGradient4248"
       x1="168"
       y1="192"
       x2="94"
       y2="62"
       gradientUnits="userSpaceOnUse" />
    <filter
       inkscape:collect="always"
       id="filter4296">
      <feGaussianBlur
         inkscape:collect="always"
         stdDeviation="2.14"
         id="feGaussianBlur4298" />
    </filter>
  </defs>
  <sodipodi:namedview
     id="base"
     pagecolor="#ffffff"
     bordercolor="#666666"
     borderopacity="1.0"
     inkscape:pageopacity="0.0"
     inkscape:pageshadow="2"
     inkscape:zoom="1"
     inkscape:cx="92.994831"
     inkscape:cy="124.0732"
     inkscape:document-units="px"
     inkscape:current-layer="layer1"
     showgrid="true"
     gridtolerance="10"
     objecttolerance="10"
     guidetolerance="10"
     inkscape:window-width="1366"
     inkscape:window-height="706"
     inkscape:window-x="-8"
     inkscape:window-y="-8"
     inkscape:window-maximized="1">
    <inkscape:grid
       type="xygrid"
       id="grid2985"
       empspacing="256"
       visible="true"
       enabled="true"
       snapvisiblegridlinesonly="true" />
  </sodipodi:namedview>
  <metadata
     id="metadata7">
    <rdf:RDF>
      <cc:Work
         rdf:about="">
        <dc:format>image/svg+xml</dc:format>
        <dc:type
           rdf:resource="http://purl.org/dc/dcmitype/StillImage" />
        <dc:title>Silex Board: Core Icon</dc:title>
      </cc:Work>
    </rdf:RDF>
  </metadata>
  <g
     inkscape:label="Ebene 1"
     inkscape:groupmode="layer"
     id="layer1"
     transform="translate(0,-796.36218)">
    <path
       id="path3784"
       transform="translate(0,796.36218)"
       d="M 128 61 C 90.996922 61 61 90.996922 61 128 C 61 165.00308 90.996922 195 128 195 C 165.00308 195 195 165.00308 195 128 C 195 90.996922 165.00308 61 128 61 z M 128 85 C 151.74824 85 171 104.25176 171 128 C 171 151.74824 151.74824 171 128 171 C 104.25176 171 85 151.74824 85 128 C 85 104.25176 104.25176 85 128 85 z "
       style="fill:#12566e;fill-opacity:1;stroke:none;filter:url(#filter4086)" />
    <path
       style="fill:url(#linearGradient4248);fill-opacity:1;stroke:none"
       d="M 128 61 C 90.996922 61 61 90.996922 61 128 C 61 165.00308 90.996922 195 128 195 C 165.00308 195 195 165.00308 195 128 C 195 90.996922 165.00308 61 128 61 z M 128 85 C 151.74824 85 171 104.25176 171 128 C 171 151.74824 151.74824 171 128 171 C 104.25176 171 85 151.74824 85 128 C 85 104.25176 104.25176 85 128 85 z "
       transform="translate(0,796.36218)"
       id="path3775" />
    <path
       style="opacity:1;fill:url(#linearGradient3763);fill-opacity:1;stroke:none"
       d="M 128 0 C 57.307552 1.4210855e-014 -2.5824017e-017 57.307552 0 128 C 0 198.69245 57.307552 256 128 256 C 198.69245 256 256 198.69245 256 128 C 256 57.307552 198.69245 -2.8447533e-014 128 0 z M 128 42 C 175.49649 42 214 80.503512 214 128 C 214 175.49649 175.49649 214 128 214 C 80.503512 214 42 175.49649 42 128 C 42 80.503512 80.503512 42 128 42 z "
       transform="translate(0,796.36218)"
       id="path2987" />
    <path
       sodipodi:type="inkscape:offset"
       inkscape:radius="3.1501226"
       inkscape:original="M 128 21 C 68.905532 21 21 68.905532 21 128 C 21 187.09447 68.905532 235 128 235 C 187.09447 235 235 187.09447 235 128 C 235 68.905532 187.09447 21 128 21 z M 128 42 C 175.49649 42 214 80.503512 214 128 C 214 175.49649 175.49649 214 128 214 C 80.503512 214 42 175.49649 42 128 C 42 80.503512 80.503512 42 128 42 z "
       style="fill:#ffffff;fill-opacity:1;stroke:none;filter:url(#filter4238);opacity:0.8"
       id="path4220"
       d="M 128,17.84375 C 67.203079,17.84375 17.84375,67.203079 17.84375,128 17.84375,188.79692 67.203079,238.15625 128,238.15625 188.79692,238.15625 238.15625,188.79692 238.15625,128 238.15625,67.203079 188.79692,17.84375 128,17.84375 z m 0,27.3125 c 45.79404,0 82.84375,37.049715 82.84375,82.84375 0,45.79404 -37.04971,82.84375 -82.84375,82.84375 -45.794035,0 -82.84375,-37.04971 -82.84375,-82.84375 0,-45.794035 37.049715,-82.84375 82.84375,-82.84375 z"
       transform="translate(0,796.36218)" />
    <path
       style="fill:#145c76;fill-opacity:1;stroke:none;filter:url(#filter4296)"
       d="M 128 21 C 68.905532 21 21 68.905532 21 128 C 21 187.09447 68.905532 235 128 235 C 187.09447 235 235 187.09447 235 128 C 235 68.905532 187.09447 21 128 21 z M 128 42 C 175.49649 42 214 80.503512 214 128 C 214 175.49649 175.49649 214 128 214 C 80.503512 214 42 175.49649 42 128 C 42 80.503512 80.503512 42 128 42 z "
       transform="translate(0,796.36218)"
       id="path3769" />
    <path
       id="path4250"
       transform="translate(0,796.36218)"
       d="M 128 21 C 68.905532 21 21 68.905532 21 128 C 21 187.09447 68.905532 235 128 235 C 187.09447 235 235 187.09447 235 128 C 235 68.905532 187.09447 21 128 21 z M 128 42 C 175.49649 42 214 80.503512 214 128 C 214 175.49649 175.49649 214 128 214 C 80.503512 214 42 175.49649 42 128 C 42 80.503512 80.503512 42 128 42 z "
       style="fill:#91d4ed;fill-opacity:1;stroke:none" />
  </g>
</svg>
